<svg id="Layer_1" data-name="Layer 1" xmlns="http://www.w3.org/2000/svg" viewBox="0 0 700 300"><defs><style>.cls-1{fill:#414042;}.cls-2{fill:#f89a4d;}</style></defs><title>logo-ineg-web oblike-svg</title><path class="cls-1" d="M289.89,188.38V150.47a.37.37,0,0,1,.41-.42h6.82a.37.37,0,0,1,.41.42v37.91a.37.37,0,0,1-.41.42H290.3A.37.37,0,0,1,289.89,188.38Z"/><path class="cls-1" d="M332.1,188.38V150.47a.37.37,0,0,1,.41-.42h6.35a.56.56,0,0,1,.5.26l17.85,24.85a18.47,18.47,0,0,1-.21-3.31V150.47a.37.37,0,0,1,.41-.42h6.72a.37.37,0,0,1,.41.42v37.91a.37.37,0,0,1-.41.42h-6.25a.56.56,0,0,1-.5-.26l-17.95-24.75a18.47,18.47,0,0,1,.21,3.31v21.28a.37.37,0,0,1-.41.42h-6.72A.37.37,0,0,1,332.1,188.38Z"/><path class="cls-1" d="M421.11,179.29h-15.5c.44,2.88,2.37,4.5,5.69,4.5a9.4,9.4,0,0,0,5.78-2,.37.37,0,0,1,.58.06l3.4,4.21c.17.21.17.4,0,.53a16.42,16.42,0,0,1-10,2.89c-7.88,0-12.87-4.6-12.87-11.57s4.53-11.57,11.73-11.57,11.32,4.54,11.61,12.49A.37.37,0,0,1,421.11,179.29Zm-7.38-4.49c-.36-2.37-1.62-3.72-3.82-3.72s-3.48,1.32-4.06,3.72Z"/><path class="cls-1" d="M493.81,168.5c-.17,11.34-7.33,21.12-19.83,21.12-11.73,0-20.1-8.67-20.1-20.2,0-12,8.42-20.19,20.46-20.19A19.12,19.12,0,0,1,491,158.68a.36.36,0,0,1-.14.57l-5.63,3.34a.36.36,0,0,1-.56-.16,11.75,11.75,0,0,0-10.45-6.59c-6.92,0-12.65,5.84-12.65,13.58s5,13.59,12.34,13.59c5.73,0,9.8-2.95,11.16-8.11H474.08a.37.37,0,0,1-.41-.41v-6a.37.37,0,0,1,.41-.41H493.4A.37.37,0,0,1,493.81,168.5Z"/><polygon class="cls-2" points="196.46 248.05 211.69 248.05 211.69 78.97 196.46 70.3 196.46 248.05"/><polygon class="cls-2" points="223.19 248.05 238.42 248.05 238.42 100.77 223.19 93.22 223.19 248.05"/><polygon class="cls-2" points="249.76 248.05 264.99 248.05 264.99 125.04 249.76 118.73 249.76 248.05"/><path class="cls-1" d="M59.71,115.78V248.05H186.77V45Zm112.6,120.55H74.47L75.4,121l96.91-53.21Z"/><path class="cls-1" d="M289.89,228.86v-22a.12.12,0,0,1,.13-.14h1.43a.13.13,0,0,1,.14.14v22a.13.13,0,0,1-.14.14H290A.12.12,0,0,1,289.89,228.86Z"/><path class="cls-1" d="M296,228.86V216.65a.13.13,0,0,1,.14-.14h1.36a.12.12,0,0,1,.13.14l0,2.13a4.63,4.63,0,0,1,4.32-2.57c2.72,0,4.37,1.82,4.37,5v7.65a.13.13,0,0,1-.14.14H304.8a.13.13,0,0,1-.14-.14v-7.51c0-2.31-1-3.59-3-3.59a4,4,0,0,0-4,4.2v6.9a.13.13,0,0,1-.14.14h-1.36A.13.13,0,0,1,296,228.86Z"/><path class="cls-1" d="M309,226.35a.12.12,0,0,1,.06-.18l1.15-.62a.12.12,0,0,1,.18.07,3.52,3.52,0,0,0,3.36,2.24c1.65,0,2.78-.9,2.78-2.31,0-1.88-1.62-2.11-3.29-2.52s-3.59-1.07-3.59-3.64c0-1.95,1.57-3.24,3.92-3.24a4.35,4.35,0,0,1,3.74,1.9.13.13,0,0,1,0,.19l-1,.74a.12.12,0,0,1-.19,0,2.84,2.84,0,0,0-2.55-1.33c-1.37,0-2.26.71-2.26,1.79,0,1.61,1.46,1.91,3.11,2.32s3.85,1,3.85,3.82c0,2.32-1.81,3.83-4.44,3.83A4.89,4.89,0,0,1,309,226.35Zm8.05-15.58-2.66,3.3a.17.17,0,0,1-.16.08h-1.13a.17.17,0,0,1-.16-.08l-2.66-3.3c-.07-.09,0-.17.08-.17H312a.18.18,0,0,1,.16.09l1.53,2.05,1.54-2.05a.18.18,0,0,1,.16-.09H317C317.11,210.6,317.14,210.68,317.07,210.77Z"/><path class="cls-1" d="M325.25,216.65v1.18a.12.12,0,0,1-.13.13h-2v10.9c0,.09,0,.14-.13.14H321.6a.13.13,0,0,1-.14-.14V218h-2c-.09,0-.14,0-.14-.13v-1.18a.13.13,0,0,1,.14-.14h2v-6.1a.13.13,0,0,1,.14-.14H323c.09,0,.13,0,.13.14v6.1h2A.12.12,0,0,1,325.25,216.65Z"/><path class="cls-1" d="M327.31,211.65a1.4,1.4,0,0,1,1.43-1.42,1.37,1.37,0,0,1,1.39,1.42,1.41,1.41,0,1,1-2.82,0Zm.61,17.21V216.65a.13.13,0,0,1,.14-.14h1.36a.13.13,0,0,1,.14.14v12.21a.13.13,0,0,1-.14.14h-1.36A.13.13,0,0,1,327.92,228.86Z"/><path class="cls-1" d="M338.1,216.65v1.18c0,.09-.05.13-.14.13h-2v10.9a.13.13,0,0,1-.14.14h-1.36a.13.13,0,0,1-.14-.14V218h-2c-.09,0-.13,0-.13-.13v-1.18c0-.09,0-.14.13-.14h2v-6.1a.13.13,0,0,1,.14-.14h1.36a.13.13,0,0,1,.14.14v6.1h2A.13.13,0,0,1,338.1,216.65Z"/><path class="cls-1" d="M340.42,223.91v-7.26a.13.13,0,0,1,.14-.14h1.36c.09,0,.13.05.13.14v7.23c0,2.63,1.16,3.93,3.5,3.93s3.51-1.3,3.51-3.93v-7.23a.13.13,0,0,1,.14-.14h1.36a.13.13,0,0,1,.14.14v7.26c0,3.43-1.9,5.45-5.15,5.45S340.42,227.34,340.42,223.91Z"/><path class="cls-1" d="M358.94,216.65v1.18c0,.09,0,.13-.13.13h-2v10.9c0,.09,0,.14-.13.14h-1.36a.13.13,0,0,1-.14-.14V218h-2c-.09,0-.14,0-.14-.13v-1.18a.13.13,0,0,1,.14-.14h2v-6.1a.13.13,0,0,1,.14-.14h1.36c.09,0,.13,0,.13.14v6.1h2C358.9,216.51,358.94,216.56,358.94,216.65Z"/><path class="cls-1" d="M366.73,228.86V216.65a.13.13,0,0,1,.14-.14h1.36a.13.13,0,0,1,.14.14l-.05,2.13a4.63,4.63,0,0,1,4.33-2.57c2.71,0,4.36,1.82,4.36,5v7.65a.13.13,0,0,1-.14.14h-1.36c-.09,0-.13-.05-.13-.14v-7.51c0-2.31-1.05-3.59-3-3.59a4,4,0,0,0-4.05,4.2v6.9a.13.13,0,0,1-.14.14h-1.36A.13.13,0,0,1,366.73,228.86Z"/><path class="cls-1" d="M380.72,211.65a1.39,1.39,0,0,1,1.42-1.42,1.38,1.38,0,0,1,1.4,1.42,1.4,1.4,0,0,1-1.4,1.45A1.38,1.38,0,0,1,380.72,211.65Zm.61,17.21V216.65c0-.09,0-.14.13-.14h1.36a.13.13,0,0,1,.14.14v12.21a.13.13,0,0,1-.14.14h-1.36C381.37,229,381.33,229,381.33,228.86Z"/><path class="cls-1" d="M385.49,228.83l7.93-9.77a5,5,0,0,1,1-1h-7.73c-.09,0-.13-.05-.13-.14v-1.23c0-.09,0-.14.13-.14h10.52c.12,0,.15.08.08.17l-7.86,9.77a4.86,4.86,0,0,1-1,1h8.24c.09,0,.13,0,.13.14v1.26c0,.09,0,.14-.13.14h-11.1C385.45,229,385.42,228.92,385.49,228.83Z"/><path class="cls-1" d="M410.3,229h-1.92a.2.2,0,0,1-.17-.08l-6.66-7.08v7a.13.13,0,0,1-.14.14h-1.36a.13.13,0,0,1-.14-.14v-22a.13.13,0,0,1,.14-.14h1.36a.13.13,0,0,1,.14.14v14.62l6-4.89a.25.25,0,0,1,.17-.06h2.08c.13,0,.16.09.06.17L404.44,221a4,4,0,0,1-1.19.66,2.66,2.66,0,0,1,1,.77l6.12,6.38C410.45,228.92,410.42,229,410.3,229Z"/><path class="cls-1" d="M411.8,222.73c0-4,2.43-6.63,6.1-6.63s6.09,2.63,6.09,6.63-2.42,6.68-6.09,6.68S411.8,226.8,411.8,222.73Zm10.52,0c0-3.1-1.73-5.1-4.42-5.1s-4.43,2-4.43,5.1,1.67,5.13,4.43,5.13S422.32,225.84,422.32,222.73Z"/><path class="cls-1" d="M438.72,222.18H428.38c0,.19,0,.38,0,.57,0,3.17,1.75,5.16,4.65,5.16a5.18,5.18,0,0,0,4.11-1.86.12.12,0,0,1,.19,0l1,1a.11.11,0,0,1,0,.18,7.07,7.07,0,0,1-5.37,2.24c-3.8,0-6.22-2.64-6.22-6.66s2.43-6.65,6.12-6.65c3.46,0,5.69,2.28,6,5.93C438.86,222.13,438.81,222.18,438.72,222.18ZM437,220.74a3.89,3.89,0,0,0-4.12-3.16,4.2,4.2,0,0,0-4.25,3.16Z"/><path class="cls-1" d="M442,228.86V216.65a.13.13,0,0,1,.14-.14h1.36a.12.12,0,0,1,.13.14l0,2.13a4.63,4.63,0,0,1,4.32-2.57c2.72,0,4.37,1.82,4.37,5v7.65a.13.13,0,0,1-.14.14h-1.36a.13.13,0,0,1-.14-.14v-7.51c0-2.31-1-3.59-2.95-3.59a4,4,0,0,0-4.06,4.2v6.9c0,.09,0,.14-.13.14h-1.36A.13.13,0,0,1,442,228.86Z"/><path class="cls-1" d="M467.57,222.18H457.22c0,.19,0,.38,0,.57,0,3.17,1.75,5.16,4.65,5.16a5.19,5.19,0,0,0,4.11-1.86.12.12,0,0,1,.19,0l1,1a.11.11,0,0,1,0,.18,7,7,0,0,1-5.36,2.24c-3.8,0-6.23-2.64-6.23-6.66s2.43-6.65,6.13-6.65c3.46,0,5.69,2.28,6,5.93C467.71,222.13,467.66,222.18,467.57,222.18Zm-1.72-1.44a3.9,3.9,0,0,0-4.13-3.16,4.18,4.18,0,0,0-4.24,3.16Z"/><path class="cls-1" d="M470.81,228.86V216.65a.13.13,0,0,1,.14-.14h1.36a.12.12,0,0,1,.13.14l-.07,2.2a3.65,3.65,0,0,1,3.39-2.59,3.25,3.25,0,0,1,2.63,1.33.15.15,0,0,1,0,.2l-.84,1.15c-.06.08-.13.07-.18,0a1.9,1.9,0,0,0-1.79-1.1c-1.8,0-3.13,1.88-3.13,4.71v6.33a.13.13,0,0,1-.14.14H471A.13.13,0,0,1,470.81,228.86Z"/><path class="cls-1" d="M491.44,216.51a.13.13,0,0,1,.14.14v12.23c0,3.8-2.37,6.24-6,6.24a7.61,7.61,0,0,1-5.08-2,.13.13,0,0,1,0-.2l1-1a.12.12,0,0,1,.19,0,5.49,5.49,0,0,0,3.89,1.68c2.58,0,4.34-1.88,4.34-4.7v-2.1a5.16,5.16,0,0,1-4.6,2.64c-3.64,0-5.86-2.62-5.86-6.66s2.39-6.65,6-6.65a4.9,4.9,0,0,1,4.5,2.7l-.06-2.15a.13.13,0,0,1,.14-.14ZM490,222.75c0-3.05-1.89-5.09-4.41-5.09-2.72,0-4.43,1.93-4.43,5.09s1.64,5.11,4.33,5.11S490,225.74,490,222.75Z"/><path class="cls-1" d="M495.35,211.65a1.4,1.4,0,0,1,1.43-1.42,1.38,1.38,0,0,1,1.4,1.42,1.42,1.42,0,1,1-2.83,0Zm.61,17.21V216.65a.13.13,0,0,1,.14-.14h1.36a.13.13,0,0,1,.14.14v12.21a.13.13,0,0,1-.14.14H496.1A.13.13,0,0,1,496,228.86Z"/><path class="cls-1" d="M501.36,211.65a1.39,1.39,0,0,1,1.42-1.42,1.37,1.37,0,0,1,1.4,1.42,1.4,1.4,0,0,1-1.4,1.45A1.38,1.38,0,0,1,501.36,211.65Zm.61,23.27V216.65c0-.09,0-.14.13-.14h1.36a.13.13,0,0,1,.14.14v18.27a.13.13,0,0,1-.14.14H502.1C502,235.06,502,235,502,234.92Z"/><path class="cls-1" d="M506.26,226.35a.12.12,0,0,1,.06-.18l1.15-.62a.12.12,0,0,1,.18.07,3.52,3.52,0,0,0,3.36,2.24c1.65,0,2.78-.9,2.78-2.31,0-1.88-1.62-2.11-3.29-2.52s-3.59-1.07-3.59-3.64c0-1.95,1.57-3.24,3.92-3.24a4.35,4.35,0,0,1,3.74,1.9.13.13,0,0,1,0,.19l-1,.74a.12.12,0,0,1-.19,0,2.84,2.84,0,0,0-2.55-1.33c-1.37,0-2.26.71-2.26,1.79,0,1.61,1.46,1.91,3.11,2.32s3.85,1,3.85,3.82c0,2.32-1.81,3.83-4.44,3.83A4.91,4.91,0,0,1,506.26,226.35Z"/><path class="cls-1" d="M528.59,229h-1.92a.2.2,0,0,1-.17-.08l-6.66-7.08v7a.13.13,0,0,1-.14.14h-1.36a.13.13,0,0,1-.14-.14v-22a.13.13,0,0,1,.14-.14h1.36a.13.13,0,0,1,.14.14v14.62l6-4.89a.25.25,0,0,1,.17-.06h2.08c.13,0,.16.09.06.17L522.73,221a4,4,0,0,1-1.19.66,2.66,2.66,0,0,1,1,.77l6.12,6.38C528.74,228.92,528.71,229,528.59,229Z"/><path class="cls-1" d="M542.14,222.18H531.8c0,.19,0,.38,0,.57,0,3.17,1.75,5.16,4.65,5.16a5.18,5.18,0,0,0,4.11-1.86.13.13,0,0,1,.2,0l1,1a.11.11,0,0,1,0,.18,7.05,7.05,0,0,1-5.37,2.24c-3.8,0-6.22-2.64-6.22-6.66s2.43-6.65,6.12-6.65c3.46,0,5.7,2.28,6,5.93C542.28,222.13,542.24,222.18,542.14,222.18Zm-1.71-1.44a3.9,3.9,0,0,0-4.13-3.16,4.18,4.18,0,0,0-4.24,3.16Z"/><path class="cls-1" d="M562.42,216.51c.09,0,.13.05.13.14v12.23c0,3.8-2.36,6.24-6,6.24a7.59,7.59,0,0,1-5.08-2,.13.13,0,0,1,0-.2l1-1a.12.12,0,0,1,.19,0,5.47,5.47,0,0,0,3.89,1.68c2.58,0,4.34-1.88,4.34-4.7v-2.1a5.16,5.16,0,0,1-4.61,2.64c-3.63,0-5.86-2.62-5.86-6.66s2.4-6.65,6-6.65a4.9,4.9,0,0,1,4.5,2.7l-.06-2.15a.13.13,0,0,1,.14-.14ZM561,222.75c0-3.05-1.89-5.09-4.41-5.09-2.72,0-4.43,1.93-4.43,5.09s1.64,5.11,4.33,5.11S561,225.74,561,222.75Z"/><path class="cls-1" d="M566.89,228.86V216.65a.13.13,0,0,1,.14-.14h1.35a.13.13,0,0,1,.14.14l-.07,2.2a3.65,3.65,0,0,1,3.39-2.59,3.21,3.21,0,0,1,2.62,1.33.15.15,0,0,1,0,.2l-.83,1.15c-.07.08-.14.07-.19,0a1.9,1.9,0,0,0-1.78-1.1c-1.81,0-3.14,1.88-3.14,4.71v6.33c0,.09,0,.14-.13.14H567A.13.13,0,0,1,566.89,228.86Z"/><path class="cls-1" d="M587.51,216.51a.13.13,0,0,1,.14.14v12.21a.13.13,0,0,1-.14.14h-1.35a.13.13,0,0,1-.14-.14l.09-2.37a5.08,5.08,0,0,1-4.72,2.92c-3.57,0-5.84-2.68-5.84-6.66s2.32-6.65,5.83-6.65a5,5,0,0,1,4.73,2.88l-.09-2.33a.13.13,0,0,1,.14-.14Zm-1.46,6.24c0-3.06-1.93-5.09-4.55-5.09s-4.3,2-4.3,5.09,1.63,5.11,4.31,5.11S586.07,225.7,586.05,222.75Z"/><path class="cls-1" d="M603.09,206.84v22a.13.13,0,0,1-.14.14h-1.36a.13.13,0,0,1-.14-.14l0-1.9a5.14,5.14,0,0,1-4.55,2.45c-3.53,0-5.93-2.72-5.93-6.69,0-4.21,2.2-6.67,5.83-6.67a5.43,5.43,0,0,1,4.63,2.37V206.84a.13.13,0,0,1,.14-.14H603A.13.13,0,0,1,603.09,206.84Zm-1.61,15.89c0-3.35-1.82-5.13-4.54-5.13s-4.3,1.94-4.3,5.13c0,3,1.79,5.13,4.4,5.13S601.5,226,601.48,222.73Z"/><path class="cls-1" d="M607.42,228.86V216.65a.13.13,0,0,1,.14-.14h1.36c.09,0,.13.05.13.14l0,2.13a4.63,4.63,0,0,1,4.32-2.57c2.72,0,4.37,1.82,4.37,5v7.65a.13.13,0,0,1-.14.14H616.2a.13.13,0,0,1-.14-.14v-7.51c0-2.31-1-3.59-2.95-3.59a4,4,0,0,0-4.05,4.2v6.9a.13.13,0,0,1-.14.14h-1.36A.13.13,0,0,1,607.42,228.86Z"/><path class="cls-1" d="M621.4,211.65a1.4,1.4,0,0,1,1.43-1.42,1.38,1.38,0,0,1,1.4,1.42,1.42,1.42,0,1,1-2.83,0Zm.61,23.27V216.65a.13.13,0,0,1,.14-.14h1.36a.13.13,0,0,1,.14.14v18.27a.13.13,0,0,1-.14.14h-1.36A.13.13,0,0,1,622,234.92Z"/><path class="cls-1" d="M639,222.18H628.68c0,.19,0,.38,0,.57,0,3.17,1.75,5.16,4.65,5.16a5.18,5.18,0,0,0,4.11-1.86.13.13,0,0,1,.2,0l1,1a.11.11,0,0,1,0,.18,7.07,7.07,0,0,1-5.37,2.24c-3.8,0-6.22-2.64-6.22-6.66s2.43-6.65,6.12-6.65c3.46,0,5.7,2.28,6,5.93C639.16,222.13,639.12,222.18,639,222.18Zm-1.71-1.44a3.9,3.9,0,0,0-4.13-3.16,4.18,4.18,0,0,0-4.24,3.16Z"/></svg>