<svg width="1920" height="640" viewBox="0 0 1920 640" fill="none" xmlns="http://www.w3.org/2000/svg">
    <g clip-path="url(#clip0_41_5637)">
    <path d="M1856.67 0.000488281V63.84H1792.91V0.000488281H1792.6V63.84H1728.84V0.000488281H1728.54V63.84H1664.78V0.000488281H1664.47V63.84H1600.71V0.000488281H1600.41V63.84H1536.64V0.000488281H1536.34V63.84H1472.58V0.000488281H1472.27V63.84H1408.51V0.000488281H1408.21V63.84H1344.45V0.000488281H1344.14V63.84H1280.38V0.000488281H1280.07V63.84H1216.31V0.000488281H1216.01V63.84H1152.25V0.000488281H1151.94V63.84H1088.18V0.000488281H1087.88V63.84H1024.11V0.000488281H1023.81V63.84H960.048V0.000488281H959.744V63.84H895.982V0.000488281H895.677V63.84H831.916V0.000488281H831.611V63.84H767.849V0.000488281H767.545V63.84H703.783V0.000488281H703.479V63.84H639.717V0.000488281H639.396V63.84H575.651V0.000488281H575.346V63.84H511.584V0.000488281H511.28V63.84H447.518V0.000488281H447.214V63.84H383.452V0.000488281H383.147V63.84H319.386V0.000488281H319.081V63.84H255.319V0.000488281H255.015V63.84H191.253V0.000488281H190.949V63.84H127.187V0.000488281H126.883V63.84H63.1208V0.000488281H62.8163V63.84H0V64.1609H62.7843V128H0V128.305H62.7843V192.145H0V192.45H62.7843V256.289H0V256.594H62.7843V320.434H0V320.739H62.7843V384.578H0V384.883H62.7843V448.722H0V449.027H62.7843V512.867H0V513.172H62.7843V577.011H0V577.316H62.7843V640.017H63.0887V577.316H126.851V640.017H127.155V577.316H190.917V640.017H191.221V577.316H254.983V640.017H255.287V577.316H319.049V640.017H319.354V577.316H383.115V640.017H383.42V577.316H447.182V640.017H447.486V577.316H511.248V640.017H511.552V577.316H575.314V640.017H575.619V577.316H639.364V640.017H639.685V577.316H703.447V640.017H703.751V577.316H767.513V640.017H767.817V577.316H831.579V640.017H831.884V577.316H895.645V640.017H895.95V577.316H959.712V640.017H960.016V577.316H1023.78V640.017H1024.08V577.316H1087.84V640.017H1088.15V577.316H1151.91V640.017H1152.21V577.316H1215.98V640.017H1216.28V577.316H1280.04V640.017H1280.35V577.316H1344.11V640.017H1344.41V577.316H1408.18V640.017H1408.48V577.316H1472.24V640.017H1472.55V577.316H1536.31V640.017H1536.61V577.316H1600.37V640.017H1600.68V577.316H1664.44V640.017H1664.74V577.316H1728.51V640.017H1728.81V577.316H1792.57V640.017H1792.88V577.316H1856.64V640.017H1856.94V577.316H1919.98V577.011H1856.94V513.172H1919.98V512.867H1856.94V449.027H1919.98V448.722H1856.94V384.883H1919.98V384.578H1856.94V320.739H1919.98V320.434H1856.94V256.594H1919.98V256.289H1856.94V192.45H1919.98V192.145H1856.94V128.305H1919.98V128H1856.94V64.1609H1919.98V63.84H1856.94V0.000488281H1856.64H1856.67ZM126.851 576.995H63.0887V513.156H126.851V576.995ZM126.851 512.851H63.0887V449.011H126.851V512.851ZM126.851 448.706H63.0887V384.867H126.851V448.706ZM126.851 384.562H63.0887V320.722H126.851V384.562ZM126.851 320.418H63.0887V256.578H126.851V320.418ZM126.851 256.273H63.0887V192.434H126.851V256.273ZM126.851 192.129H63.0887V128.289H126.851V192.129ZM126.851 127.984H63.0887V64.1449H126.851V127.984ZM190.917 576.995H127.155V513.156H190.917V576.995ZM190.917 512.851H127.155V449.011H190.917V512.851ZM190.917 448.706H127.155V384.867H190.917V448.706ZM190.917 384.562H127.155V320.722H190.917V384.562ZM190.917 320.418H127.155V256.578H190.917V320.418ZM190.917 256.273H127.155V192.434H190.917V256.273ZM190.917 192.129H127.155V128.289H190.917V192.129ZM190.917 127.984H127.155V64.1449H190.917V127.984ZM254.983 576.995H191.221V513.156H254.983V576.995ZM254.983 512.851H191.221V449.011H254.983V512.851ZM254.983 448.706H191.221V384.867H254.983V448.706ZM254.983 384.562H191.221V320.722H254.983V384.562ZM254.983 320.418H191.221V256.578H254.983V320.418ZM254.983 256.273H191.221V192.434H254.983V256.273ZM254.983 192.129H191.221V128.289H254.983V192.129ZM254.983 127.984H191.221V64.1449H254.983V127.984ZM319.049 576.995H255.287V513.156H319.049V576.995ZM319.049 512.851H255.287V449.011H319.049V512.851ZM319.049 448.706H255.287V384.867H319.049V448.706ZM319.049 384.562H255.287V320.722H319.049V384.562ZM319.049 320.418H255.287V256.578H319.049V320.418ZM319.049 256.273H255.287V192.434H319.049V256.273ZM319.049 192.129H255.287V128.289H319.049V192.129ZM319.049 127.984H255.287V64.1449H319.049V127.984ZM383.115 576.995H319.354V513.156H383.115V576.995ZM383.115 512.851H319.354V449.011H383.115V512.851ZM383.115 448.706H319.354V384.867H383.115V448.706ZM383.115 384.562H319.354V320.722H383.115V384.562ZM383.115 320.418H319.354V256.578H383.115V320.418ZM383.115 256.273H319.354V192.434H383.115V256.273ZM383.115 192.129H319.354V128.289H383.115V192.129ZM383.115 127.984H319.354V64.1449H383.115V127.984ZM447.198 576.995H383.436V513.156H447.198V576.995ZM447.198 512.851H383.436V449.011H447.198V512.851ZM447.198 448.706H383.436V384.867H447.198V448.706ZM447.198 384.562H383.436V320.722H447.198V384.562ZM447.198 320.418H383.436V256.578H447.198V320.418ZM447.198 256.273H383.436V192.434H447.198V256.273ZM447.198 192.129H383.436V128.289H447.198V192.129ZM447.198 127.984H383.436V64.1449H447.198V127.984ZM511.264 576.995H447.502V513.156H511.264V576.995ZM511.264 512.851H447.502V449.011H511.264V512.851ZM511.264 448.706H447.502V384.867H511.264V448.706ZM511.264 384.562H447.502V320.722H511.264V384.562ZM511.264 320.418H447.502V256.578H511.264V320.418ZM511.264 256.273H447.502V192.434H511.264V256.273ZM511.264 192.129H447.502V128.289H511.264V192.129ZM511.264 127.984H447.502V64.1449H511.264V127.984ZM575.33 576.995H511.568V513.156H575.33V576.995ZM575.33 512.851H511.568V449.011H575.33V512.851ZM575.33 448.706H511.568V384.867H575.33V448.706ZM575.33 384.562H511.568V320.722H575.33V384.562ZM575.33 320.418H511.568V256.578H575.33V320.418ZM575.33 256.273H511.568V192.434H575.33V256.273ZM575.33 192.129H511.568V128.289H575.33V192.129ZM575.33 127.984H511.568V64.1449H575.33V127.984ZM639.38 576.995H575.635V513.156H639.38V576.995ZM639.38 512.851H575.635V449.011H639.38V512.851ZM639.38 448.706H575.635V384.867H639.38V448.706ZM639.38 384.562H575.635V320.722H639.38V384.562ZM639.38 320.418H575.635V256.578H639.38V320.418ZM639.38 256.273H575.635V192.434H639.38V256.273ZM639.38 192.129H575.635V128.289H639.38V192.129ZM639.38 127.984H575.635V64.1449H639.38V127.984ZM703.463 576.995H639.717V513.156H703.463V576.995ZM703.463 512.851H639.717V449.011H703.463V512.851ZM703.463 448.706H639.717V384.867H703.463V448.706ZM703.463 384.562H639.717V320.722H703.463V384.562ZM703.463 320.418H639.717V256.578H703.463V320.418ZM703.463 256.273H639.717V192.434H703.463V256.273ZM703.463 192.129H639.717V128.289H703.463V192.129ZM703.463 127.984H639.717V64.1449H703.463V127.984ZM767.529 576.995H703.767V513.156H767.529V576.995ZM767.529 512.851H703.767V449.011H767.529V512.851ZM767.529 448.706H703.767V384.867H767.529V448.706ZM767.529 384.562H703.767V320.722H767.529V384.562ZM767.529 320.418H703.767V256.578H767.529V320.418ZM767.529 256.273H703.767V192.434H767.529V256.273ZM767.529 192.129H703.767V128.289H767.529V192.129ZM767.529 127.984H703.767V64.1449H767.529V127.984ZM831.595 576.995H767.833V513.156H831.595V576.995ZM831.595 512.851H767.833V449.011H831.595V512.851ZM831.595 448.706H767.833V384.867H831.595V448.706ZM831.595 384.562H767.833V320.722H831.595V384.562ZM831.595 320.418H767.833V256.578H831.595V320.418ZM831.595 256.273H767.833V192.434H831.595V256.273ZM831.595 192.129H767.833V128.289H831.595V192.129ZM831.595 127.984H767.833V64.1449H831.595V127.984ZM895.661 576.995H831.9V513.156H895.661V576.995ZM895.661 512.851H831.9V449.011H895.661V512.851ZM895.661 448.706H831.9V384.867H895.661V448.706ZM895.661 384.562H831.9V320.722H895.661V384.562ZM895.661 320.418H831.9V256.578H895.661V320.418ZM895.661 256.273H831.9V192.434H895.661V256.273ZM895.661 192.129H831.9V128.289H895.661V192.129ZM895.661 127.984H831.9V64.1449H895.661V127.984ZM959.727 576.995H895.966V513.156H959.727V576.995ZM959.727 512.851H895.966V449.011H959.727V512.851ZM959.727 448.706H895.966V384.867H959.727V448.706ZM959.727 384.562H895.966V320.722H959.727V384.562ZM959.727 320.418H895.966V256.578H959.727V320.418ZM959.727 256.273H895.966V192.434H959.727V256.273ZM959.727 192.129H895.966V128.289H959.727V192.129ZM959.727 127.984H895.966V64.1449H959.727V127.984ZM1023.79 576.995H960.032V513.156H1023.79V576.995ZM1023.79 512.851H960.032V449.011H1023.79V512.851ZM1023.79 448.706H960.032V384.867H1023.79V448.706ZM1023.79 384.562H960.032V320.722H1023.79V384.562ZM1023.79 320.418H960.032V256.578H1023.79V320.418ZM1023.79 256.273H960.032V192.434H1023.79V256.273ZM1023.79 192.129H960.032V128.289H1023.79V192.129ZM1023.79 127.984H960.032V64.1449H1023.79V127.984ZM1087.86 576.995H1024.1V513.156H1087.86V576.995ZM1087.86 512.851H1024.1V449.011H1087.86V512.851ZM1087.86 448.706H1024.1V384.867H1087.86V448.706ZM1087.86 384.562H1024.1V320.722H1087.86V384.562ZM1087.86 320.418H1024.1V256.578H1087.86V320.418ZM1087.86 256.273H1024.1V192.434H1087.86V256.273ZM1087.86 192.129H1024.1V128.289H1087.86V192.129ZM1087.86 127.984H1024.1V64.1449H1087.86V127.984ZM1151.93 576.995H1088.16V513.156H1151.93V576.995ZM1151.93 512.851H1088.16V449.011H1151.93V512.851ZM1151.93 448.706H1088.16V384.867H1151.93V448.706ZM1151.93 384.562H1088.16V320.722H1151.93V384.562ZM1151.93 320.418H1088.16V256.578H1151.93V320.418ZM1151.93 256.273H1088.16V192.434H1151.93V256.273ZM1151.93 192.129H1088.16V128.289H1151.93V192.129ZM1151.93 127.984H1088.16V64.1449H1151.93V127.984ZM1215.99 576.995H1152.23V513.156H1215.99V576.995ZM1215.99 512.851H1152.23V449.011H1215.99V512.851ZM1215.99 448.706H1152.23V384.867H1215.99V448.706ZM1215.99 384.562H1152.23V320.722H1215.99V384.562ZM1215.99 320.418H1152.23V256.578H1215.99V320.418ZM1215.99 256.273H1152.23V192.434H1215.99V256.273ZM1215.99 192.129H1152.23V128.289H1215.99V192.129ZM1215.99 127.984H1152.23V64.1449H1215.99V127.984ZM1280.06 576.995H1216.3V513.156H1280.06V576.995ZM1280.06 512.851H1216.3V449.011H1280.06V512.851ZM1280.06 448.706H1216.3V384.867H1280.06V448.706ZM1280.06 384.562H1216.3V320.722H1280.06V384.562ZM1280.06 320.418H1216.3V256.578H1280.06V320.418ZM1280.06 256.273H1216.3V192.434H1280.06V256.273ZM1280.06 192.129H1216.3V128.289H1280.06V192.129ZM1280.06 127.984H1216.3V64.1449H1280.06V127.984ZM1344.12 576.995H1280.36V513.156H1344.12V576.995ZM1344.12 512.851H1280.36V449.011H1344.12V512.851ZM1344.12 448.706H1280.36V384.867H1344.12V448.706ZM1344.12 384.562H1280.36V320.722H1344.12V384.562ZM1344.12 320.418H1280.36V256.578H1344.12V320.418ZM1344.12 256.273H1280.36V192.434H1344.12V256.273ZM1344.12 192.129H1280.36V128.289H1344.12V192.129ZM1344.12 127.984H1280.36V64.1449H1344.12V127.984ZM1408.19 576.995H1344.43V513.156H1408.19V576.995ZM1408.19 512.851H1344.43V449.011H1408.19V512.851ZM1408.19 448.706H1344.43V384.867H1408.19V448.706ZM1408.19 384.562H1344.43V320.722H1408.19V384.562ZM1408.19 320.418H1344.43V256.578H1408.19V320.418ZM1408.19 256.273H1344.43V192.434H1408.19V256.273ZM1408.19 192.129H1344.43V128.289H1408.19V192.129ZM1408.19 127.984H1344.43V64.1449H1408.19V127.984ZM1472.26 576.995H1408.5V513.156H1472.26V576.995ZM1472.26 512.851H1408.5V449.011H1472.26V512.851ZM1472.26 448.706H1408.5V384.867H1472.26V448.706ZM1472.26 384.562H1408.5V320.722H1472.26V384.562ZM1472.26 320.418H1408.5V256.578H1472.26V320.418ZM1472.26 256.273H1408.5V192.434H1472.26V256.273ZM1472.26 192.129H1408.5V128.289H1472.26V192.129ZM1472.26 127.984H1408.5V64.1449H1472.26V127.984ZM1536.32 576.995H1472.56V513.156H1536.32V576.995ZM1536.32 512.851H1472.56V449.011H1536.32V512.851ZM1536.32 448.706H1472.56V384.867H1536.32V448.706ZM1536.32 384.562H1472.56V320.722H1536.32V384.562ZM1536.32 320.418H1472.56V256.578H1536.32V320.418ZM1536.32 256.273H1472.56V192.434H1536.32V256.273ZM1536.32 192.129H1472.56V128.289H1536.32V192.129ZM1536.32 127.984H1472.56V64.1449H1536.32V127.984ZM1600.39 576.995H1536.63V513.156H1600.39V576.995ZM1600.39 512.851H1536.63V449.011H1600.39V512.851ZM1600.39 448.706H1536.63V384.867H1600.39V448.706ZM1600.39 384.562H1536.63V320.722H1600.39V384.562ZM1600.39 320.418H1536.63V256.578H1600.39V320.418ZM1600.39 256.273H1536.63V192.434H1600.39V256.273ZM1600.39 192.129H1536.63V128.289H1600.39V192.129ZM1600.39 127.984H1536.63V64.1449H1600.39V127.984ZM1664.46 576.995H1600.69V513.156H1664.46V576.995ZM1664.46 512.851H1600.69V449.011H1664.46V512.851ZM1664.46 448.706H1600.69V384.867H1664.46V448.706ZM1664.46 384.562H1600.69V320.722H1664.46V384.562ZM1664.46 320.418H1600.69V256.578H1664.46V320.418ZM1664.46 256.273H1600.69V192.434H1664.46V256.273ZM1664.46 192.129H1600.69V128.289H1664.46V192.129ZM1664.46 127.984H1600.69V64.1449H1664.46V127.984ZM1728.52 576.995H1664.76V513.156H1728.52V576.995ZM1728.52 512.851H1664.76V449.011H1728.52V512.851ZM1728.52 448.706H1664.76V384.867H1728.52V448.706ZM1728.52 384.562H1664.76V320.722H1728.52V384.562ZM1728.52 320.418H1664.76V256.578H1728.52V320.418ZM1728.52 256.273H1664.76V192.434H1728.52V256.273ZM1728.52 192.129H1664.76V128.289H1728.52V192.129ZM1728.52 127.984H1664.76V64.1449H1728.52V127.984ZM1792.59 576.995H1728.83V513.156H1792.59V576.995ZM1792.59 512.851H1728.83V449.011H1792.59V512.851ZM1792.59 448.706H1728.83V384.867H1792.59V448.706ZM1792.59 384.562H1728.83V320.722H1792.59V384.562ZM1792.59 320.418H1728.83V256.578H1792.59V320.418ZM1792.59 256.273H1728.83V192.434H1792.59V256.273ZM1792.59 192.129H1728.83V128.289H1792.59V192.129ZM1792.59 127.984H1728.83V64.1449H1792.59V127.984ZM1856.67 576.995H1792.91V513.156H1856.67V576.995ZM1856.67 512.851H1792.91V449.011H1856.67V512.851ZM1856.67 448.706H1792.91V384.867H1856.67V448.706ZM1856.67 384.562H1792.91V320.722H1856.67V384.562ZM1856.67 320.418H1792.91V256.578H1856.67V320.418ZM1856.67 256.273H1792.91V192.434H1856.67V256.273ZM1856.67 192.129H1792.91V128.289H1856.67V192.129ZM1856.67 127.984H1792.91V64.1449H1856.67V127.984Z" fill="url(#paint0_radial_41_5637)"/>
    <path d="M288.587 608.908L288.892 609.213L288.587 609.518L287.674 610.432L287.353 610.737L287.049 610.432L286.151 609.518L285.847 609.213L286.151 608.908L287.049 607.993L287.353 607.689L287.674 607.993L288.587 608.908ZM287.69 543.897L287.369 543.592L287.065 543.897L286.167 544.812L285.863 545.117L286.167 545.421L287.065 546.336L287.369 546.641L287.69 546.336L288.603 545.421L288.908 545.117L288.603 544.812L287.69 543.897ZM287.69 287.448L287.369 287.143L287.065 287.448L286.167 288.362L285.863 288.667L286.167 288.972L287.065 289.887L287.369 290.192L287.69 289.887L288.603 288.972L288.908 288.667L288.603 288.362L287.69 287.448ZM287.69 479.785L287.369 479.464L287.065 479.785L286.167 480.699L285.863 481.004L286.167 481.309L287.065 482.224L287.369 482.528L287.69 482.224L288.603 481.309L288.908 481.004L288.603 480.699L287.69 479.785ZM287.69 223.352L287.369 223.047L287.065 223.352L286.167 224.266L285.863 224.571L286.167 224.876L287.065 225.79L287.369 226.095L287.69 225.79L288.603 224.876L288.908 224.571L288.603 224.266L287.69 223.352ZM287.69 415.673L287.369 415.368L287.065 415.673L286.167 416.587L285.863 416.892L286.167 417.197L287.065 418.095L287.369 418.4L287.69 418.095L288.603 417.197L288.908 416.892L288.603 416.587L287.69 415.673ZM287.69 159.239L287.369 158.935L287.065 159.239L286.167 160.154L285.863 160.459L286.167 160.764L287.065 161.678L287.369 161.983L287.69 161.678L288.603 160.764L288.908 160.459L288.603 160.154L287.69 159.239ZM223.656 415.673L223.335 415.368L223.031 415.673L222.117 416.587L221.813 416.892L222.117 417.197L223.031 418.095L223.335 418.4L223.656 418.095L224.553 417.197L224.857 416.892L224.553 416.587L223.656 415.673ZM223.656 479.785L223.335 479.464L223.031 479.785L222.117 480.699L221.813 481.004L222.117 481.309L223.031 482.224L223.335 482.528L223.656 482.224L224.553 481.309L224.857 481.004L224.553 480.699L223.656 479.785ZM223.656 607.993L223.335 607.689L223.031 607.993L222.117 608.908L221.813 609.213L222.117 609.518L223.031 610.432L223.335 610.737L223.656 610.432L224.553 609.518L224.857 609.213L224.553 608.908L223.656 607.993ZM223.656 543.897L223.335 543.592L223.031 543.897L222.117 544.812L221.813 545.117L222.117 545.421L223.031 546.336L223.335 546.641L223.656 546.336L224.553 545.421L224.857 545.117L224.553 544.812L223.656 543.897ZM223.656 31.0148L223.335 30.71L223.031 31.0148L222.117 31.9293L221.813 32.2342L222.117 32.539L223.031 33.4535L223.335 33.7583L223.656 33.4535L224.553 32.539L224.857 32.2342L224.553 31.9293L223.656 31.0148ZM223.656 351.56L223.335 351.255L223.031 351.56L222.117 352.459L221.813 352.764L222.117 353.068L223.031 353.967L223.335 354.272L223.656 353.967L224.553 353.068L224.857 352.764L224.553 352.459L223.656 351.56ZM223.656 159.239L223.335 158.935L223.031 159.239L222.117 160.154L221.813 160.459L222.117 160.764L223.031 161.678L223.335 161.983L223.656 161.678L224.553 160.764L224.857 160.459L224.553 160.154L223.656 159.239ZM223.656 95.1271L223.335 94.8223L223.031 95.1271L222.117 96.0416L221.813 96.3465L222.117 96.6513L223.031 97.5658L223.335 97.8707L223.656 97.5658L224.553 96.6513L224.857 96.3465L224.553 96.0416L223.656 95.1271ZM223.656 287.448L223.335 287.143L223.031 287.448L222.117 288.362L221.813 288.667L222.117 288.972L223.031 289.887L223.335 290.192L223.656 289.887L224.553 288.972L224.857 288.667L224.553 288.362L223.656 287.448ZM223.656 223.352L223.335 223.047L223.031 223.352L222.117 224.266L221.813 224.571L222.117 224.876L223.031 225.79L223.335 226.095L223.656 225.79L224.553 224.876L224.857 224.571L224.553 224.266L223.656 223.352ZM287.69 351.56L287.369 351.255L287.065 351.56L286.167 352.459L285.863 352.764L286.167 353.068L287.065 353.967L287.369 354.272L287.69 353.967L288.603 353.068L288.908 352.764L288.603 352.459L287.69 351.56ZM351.724 95.1271L351.419 94.8223L351.099 95.1271L350.186 96.0416L349.865 96.3465L350.186 96.6513L351.099 97.5658L351.419 97.8707L351.724 97.5658L352.621 96.6513L352.926 96.3465L352.621 96.0416L351.724 95.1271ZM351.724 31.0148L351.419 30.71L351.099 31.0148L350.186 31.9293L349.865 32.2342L350.186 32.539L351.099 33.4535L351.419 33.7583L351.724 33.4535L352.621 32.539L352.926 32.2342L352.621 31.9293L351.724 31.0148ZM351.724 159.239L351.419 158.935L351.099 159.239L350.186 160.154L349.865 160.459L350.186 160.764L351.099 161.678L351.419 161.983L351.724 161.678L352.621 160.764L352.926 160.459L352.621 160.154L351.724 159.239ZM351.724 223.352L351.419 223.047L351.099 223.352L350.186 224.266L349.865 224.571L350.186 224.876L351.099 225.79L351.419 226.095L351.724 225.79L352.621 224.876L352.926 224.571L352.621 224.266L351.724 223.352ZM415.742 543.897L415.438 543.592L415.117 543.897L414.22 544.812L413.915 545.117L414.22 545.421L415.117 546.336L415.438 546.641L415.742 546.336L416.639 545.421L416.96 545.117L416.639 544.812L415.742 543.897ZM351.724 287.448L351.419 287.143L351.099 287.448L350.186 288.362L349.865 288.667L350.186 288.972L351.099 289.887L351.419 290.192L351.724 289.887L352.621 288.972L352.926 288.667L352.621 288.362L351.724 287.448ZM415.742 607.993L415.438 607.689L415.117 607.993L414.22 608.908L413.915 609.213L414.22 609.518L415.117 610.432L415.438 610.737L415.742 610.432L416.639 609.518L416.96 609.213L416.639 608.908L415.742 607.993ZM287.69 95.1271L287.369 94.8223L287.065 95.1271L286.167 96.0416L285.863 96.3465L286.167 96.6513L287.065 97.5658L287.369 97.8707L287.69 97.5658L288.603 96.6513L288.908 96.3465L288.603 96.0416L287.69 95.1271ZM351.724 351.56L351.419 351.255L351.099 351.56L350.186 352.459L349.865 352.764L350.186 353.068L351.099 353.967L351.419 354.272L351.724 353.967L352.621 353.068L352.926 352.764L352.621 352.459L351.724 351.56ZM287.69 31.0148L287.369 30.71L287.065 31.0148L286.167 31.9293L285.863 32.2342L286.167 32.539L287.065 33.4535L287.369 33.7583L287.69 33.4535L288.603 32.539L288.908 32.2342L288.603 31.9293L287.69 31.0148ZM351.724 479.785L351.419 479.464L351.099 479.785L350.186 480.699L349.865 481.004L350.186 481.309L351.099 482.224L351.419 482.528L351.724 482.224L352.621 481.309L352.926 481.004L352.621 480.699L351.724 479.785ZM351.724 607.993L351.419 607.689L351.099 607.993L350.186 608.908L349.865 609.213L350.186 609.518L351.099 610.432L351.419 610.737L351.724 610.432L352.621 609.518L352.926 609.213L352.621 608.908L351.724 607.993ZM351.724 415.673L351.419 415.368L351.099 415.673L350.186 416.587L349.865 416.892L350.186 417.197L351.099 418.095L351.419 418.4L351.724 418.095L352.621 417.197L352.926 416.892L352.621 416.587L351.724 415.673ZM351.724 543.897L351.419 543.592L351.099 543.897L350.186 544.812L349.865 545.117L350.186 545.421L351.099 546.336L351.419 546.641L351.724 546.336L352.621 545.421L352.926 545.117L352.621 544.812L351.724 543.897ZM31.569 31.0148L31.2645 30.71L30.9601 31.0148L30.0467 31.9293L29.7422 32.2342L30.0467 32.539L30.9601 33.4535L31.2645 33.7583L31.569 33.4535L32.4824 32.539L32.7869 32.2342L32.4824 31.9293L31.569 31.0148ZM95.5872 415.673L95.2827 415.368L94.9782 415.673L94.0648 416.587L93.7603 416.892L94.0648 417.197L94.9782 418.095L95.2827 418.4L95.5872 418.095L96.5005 417.197L96.805 416.892L96.5005 416.587L95.5872 415.673ZM31.569 287.448L31.2645 287.143L30.9601 287.448L30.0467 288.362L29.7422 288.667L30.0467 288.972L30.9601 289.887L31.2645 290.192L31.569 289.887L32.4824 288.972L32.7869 288.667L32.4824 288.362L31.569 287.448ZM31.569 159.239L31.2645 158.935L30.9601 159.239L30.0467 160.154L29.7422 160.459L30.0467 160.764L30.9601 161.678L31.2645 161.983L31.569 161.678L32.4824 160.764L32.7869 160.459L32.4824 160.154L31.569 159.239ZM95.5872 543.897L95.2827 543.592L94.9782 543.897L94.0648 544.812L93.7603 545.117L94.0648 545.421L94.9782 546.336L95.2827 546.641L95.5872 546.336L96.5005 545.421L96.805 545.117L96.5005 544.812L95.5872 543.897ZM95.5872 479.785L95.2827 479.464L94.9782 479.785L94.0648 480.699L93.7603 481.004L94.0648 481.309L94.9782 482.224L95.2827 482.528L95.5872 482.224L96.5005 481.309L96.805 481.004L96.5005 480.699L95.5872 479.785ZM95.5872 607.993L95.2827 607.689L94.9782 607.993L94.0648 608.908L93.7603 609.213L94.0648 609.518L94.9782 610.432L95.2827 610.737L95.5872 610.432L96.5005 609.518L96.805 609.213L96.5005 608.908L95.5872 607.993ZM31.569 223.352L31.2645 223.047L30.9601 223.352L30.0467 224.266L29.7422 224.571L30.0467 224.876L30.9601 225.79L31.2645 226.095L31.569 225.79L32.4824 224.876L32.7869 224.571L32.4824 224.266L31.569 223.352ZM31.569 351.56L31.2645 351.255L30.9601 351.56L30.0467 352.459L29.7422 352.764L30.0467 353.068L30.9601 353.967L31.2645 354.272L31.569 353.967L32.4824 353.068L32.7869 352.764L32.4824 352.459L31.569 351.56ZM415.742 479.785L415.438 479.464L415.117 479.785L414.22 480.699L413.915 481.004L414.22 481.309L415.117 482.224L415.438 482.528L415.742 482.224L416.639 481.309L416.96 481.004L416.639 480.699L415.742 479.785ZM31.569 415.673L31.2645 415.368L30.9601 415.673L30.0467 416.587L29.7422 416.892L30.0467 417.197L30.9601 418.095L31.2645 418.4L31.569 418.095L32.4824 417.197L32.7869 416.892L32.4824 416.587L31.569 415.673ZM31.569 479.785L31.2645 479.464L30.9601 479.785L30.0467 480.699L29.7422 481.004L30.0467 481.309L30.9601 482.224L31.2645 482.528L31.569 482.224L32.4824 481.309L32.7869 481.004L32.4824 480.699L31.569 479.785ZM31.569 543.897L31.2645 543.592L30.9601 543.897L30.0467 544.812L29.7422 545.117L30.0467 545.421L30.9601 546.336L31.2645 546.641L31.569 546.336L32.4824 545.421L32.7869 545.117L32.4824 544.812L31.569 543.897ZM31.569 607.993L31.2645 607.689L30.9601 607.993L30.0467 608.908L29.7422 609.213L30.0467 609.518L30.9601 610.432L31.2645 610.737L31.569 610.432L32.4824 609.518L32.7869 609.213L32.4824 608.908L31.569 607.993ZM159.621 351.56L159.317 351.255L159.012 351.56L158.115 352.459L157.795 352.764L158.115 353.068L159.012 353.967L159.317 354.272L159.621 353.967L160.535 353.068L160.839 352.764L160.535 352.459L159.621 351.56ZM159.621 287.448L159.317 287.143L159.012 287.448L158.115 288.362L157.795 288.667L158.115 288.972L159.012 289.887L159.317 290.192L159.621 289.887L160.535 288.972L160.839 288.667L160.535 288.362L159.621 287.448ZM95.5872 351.56L95.2827 351.255L94.9782 351.56L94.0648 352.459L93.7603 352.764L94.0648 353.068L94.9782 353.967L95.2827 354.272L95.5872 353.967L96.5005 353.068L96.805 352.764L96.5005 352.459L95.5872 351.56ZM159.621 479.785L159.317 479.464L159.012 479.785L158.115 480.699L157.795 481.004L158.115 481.309L159.012 482.224L159.317 482.528L159.621 482.224L160.535 481.309L160.839 481.004L160.535 480.699L159.621 479.785ZM159.621 223.352L159.317 223.047L159.012 223.352L158.115 224.266L157.795 224.571L158.115 224.876L159.012 225.79L159.317 226.095L159.621 225.79L160.535 224.876L160.839 224.571L160.535 224.266L159.621 223.352ZM159.621 95.1271L159.317 94.8223L159.012 95.1271L158.115 96.0416L157.795 96.3465L158.115 96.6513L159.012 97.5658L159.317 97.8707L159.621 97.5658L160.535 96.6513L160.839 96.3465L160.535 96.0416L159.621 95.1271ZM159.621 31.0148L159.317 30.71L159.012 31.0148L158.115 31.9293L157.795 32.2342L158.115 32.539L159.012 33.4535L159.317 33.7583L159.621 33.4535L160.535 32.539L160.839 32.2342L160.535 31.9293L159.621 31.0148ZM159.621 543.897L159.317 543.592L159.012 543.897L158.115 544.812L157.795 545.117L158.115 545.421L159.012 546.336L159.317 546.641L159.621 546.336L160.535 545.421L160.839 545.117L160.535 544.812L159.621 543.897ZM159.621 159.239L159.317 158.935L159.012 159.239L158.115 160.154L157.795 160.459L158.115 160.764L159.012 161.678L159.317 161.983L159.621 161.678L160.535 160.764L160.839 160.459L160.535 160.154L159.621 159.239ZM159.621 415.673L159.317 415.368L159.012 415.673L158.115 416.587L157.795 416.892L158.115 417.197L159.012 418.095L159.317 418.4L159.621 418.095L160.535 417.197L160.839 416.892L160.535 416.587L159.621 415.673ZM95.5872 95.1271L95.2827 94.8223L94.9782 95.1271L94.0648 96.0416L93.7603 96.3465L94.0648 96.6513L94.9782 97.5658L95.2827 97.8707L95.5872 97.5658L96.5005 96.6513L96.805 96.3465L96.5005 96.0416L95.5872 95.1271ZM95.5872 159.239L95.2827 158.935L94.9782 159.239L94.0648 160.154L93.7603 160.459L94.0648 160.764L94.9782 161.678L95.2827 161.983L95.5872 161.678L96.5005 160.764L96.805 160.459L96.5005 160.154L95.5872 159.239ZM95.5872 223.352L95.2827 223.047L94.9782 223.352L94.0648 224.266L93.7603 224.571L94.0648 224.876L94.9782 225.79L95.2827 226.095L95.5872 225.79L96.5005 224.876L96.805 224.571L96.5005 224.266L95.5872 223.352ZM95.5872 287.448L95.2827 287.143L94.9782 287.448L94.0648 288.362L93.7603 288.667L94.0648 288.972L94.9782 289.887L95.2827 290.192L95.5872 289.887L96.5005 288.972L96.805 288.667L96.5005 288.362L95.5872 287.448ZM159.621 607.993L159.317 607.689L159.012 607.993L158.115 608.908L157.795 609.213L158.115 609.518L159.012 610.432L159.317 610.737L159.621 610.432L160.535 609.518L160.839 609.213L160.535 608.908L159.621 607.993ZM95.5872 31.0148L95.2827 30.71L94.9782 31.0148L94.0648 31.9293L93.7603 32.2342L94.0648 32.539L94.9782 33.4535L95.2827 33.7583L95.5872 33.4535L96.5005 32.539L96.805 32.2342L96.5005 31.9293L95.5872 31.0148ZM31.569 95.1271L31.2645 94.8223L30.9601 95.1271L30.0467 96.0416L29.7422 96.3465L30.0467 96.6513L30.9601 97.5658L31.2645 97.8707L31.569 97.5658L32.4824 96.6513L32.7869 96.3465L32.4824 96.0416L31.569 95.1271ZM607.845 223.352L607.54 223.047L607.236 223.352L606.322 224.266L606.018 224.571L606.322 224.876L607.236 225.79L607.54 226.095L607.845 225.79L608.758 224.876L609.062 224.571L608.758 224.266L607.845 223.352ZM607.845 31.0148L607.54 30.71L607.236 31.0148L606.322 31.9293L606.018 32.2342L606.322 32.539L607.236 33.4535L607.54 33.7583L607.845 33.4535L608.758 32.539L609.062 32.2342L608.758 31.9293L607.845 31.0148ZM607.845 159.239L607.54 158.935L607.236 159.239L606.322 160.154L606.018 160.459L606.322 160.764L607.236 161.678L607.54 161.983L607.845 161.678L608.758 160.764L609.062 160.459L608.758 160.154L607.845 159.239ZM607.845 95.1271L607.54 94.8223L607.236 95.1271L606.322 96.0416L606.018 96.3465L606.322 96.6513L607.236 97.5658L607.54 97.8707L607.845 97.5658L608.758 96.6513L609.062 96.3465L608.758 96.0416L607.845 95.1271ZM543.81 479.785L543.506 479.464L543.201 479.785L542.288 480.699L541.984 481.004L542.288 481.309L543.201 482.224L543.506 482.528L543.81 482.224L544.724 481.309L545.028 481.004L544.724 480.699L543.81 479.785ZM479.776 415.673L479.472 415.368L479.167 415.673L478.254 416.587L477.949 416.892L478.254 417.197L479.167 418.095L479.472 418.4L479.776 418.095L480.69 417.197L481.01 416.892L480.69 416.587L479.776 415.673ZM479.776 607.993L479.472 607.689L479.167 607.993L478.254 608.908L477.949 609.213L478.254 609.518L479.167 610.432L479.472 610.737L479.776 610.432L480.69 609.518L481.01 609.213L480.69 608.908L479.776 607.993ZM479.776 479.785L479.472 479.464L479.167 479.785L478.254 480.699L477.949 481.004L478.254 481.309L479.167 482.224L479.472 482.528L479.776 482.224L480.69 481.309L481.01 481.004L480.69 480.699L479.776 479.785ZM479.776 543.897L479.472 543.592L479.167 543.897L478.254 544.812L477.949 545.117L478.254 545.421L479.167 546.336L479.472 546.641L479.776 546.336L480.69 545.421L481.01 545.117L480.69 544.812L479.776 543.897ZM479.776 287.448L479.472 287.143L479.167 287.448L478.254 288.362L477.949 288.667L478.254 288.972L479.167 289.887L479.472 290.192L479.776 289.887L480.69 288.972L481.01 288.667L480.69 288.362L479.776 287.448ZM479.776 351.56L479.472 351.255L479.167 351.56L478.254 352.459L477.949 352.764L478.254 353.068L479.167 353.967L479.472 354.272L479.776 353.967L480.69 353.068L481.01 352.764L480.69 352.459L479.776 351.56ZM479.776 31.0148L479.472 30.71L479.167 31.0148L478.254 31.9293L477.949 32.2342L478.254 32.539L479.167 33.4535L479.472 33.7583L479.776 33.4535L480.69 32.539L481.01 32.2342L480.69 31.9293L479.776 31.0148ZM479.776 95.1271L479.472 94.8223L479.167 95.1271L478.254 96.0416L477.949 96.3465L478.254 96.6513L479.167 97.5658L479.472 97.8707L479.776 97.5658L480.69 96.6513L481.01 96.3465L480.69 96.0416L479.776 95.1271ZM479.776 159.239L479.472 158.935L479.167 159.239L478.254 160.154L477.949 160.459L478.254 160.764L479.167 161.678L479.472 161.983L479.776 161.678L480.69 160.764L481.01 160.459L480.69 160.154L479.776 159.239ZM479.776 223.352L479.472 223.047L479.167 223.352L478.254 224.266L477.949 224.571L478.254 224.876L479.167 225.79L479.472 226.095L479.776 225.79L480.69 224.876L481.01 224.571L480.69 224.266L479.776 223.352ZM415.742 287.448L415.438 287.143L415.117 287.448L414.22 288.362L413.915 288.667L414.22 288.972L415.117 289.887L415.438 290.192L415.742 289.887L416.639 288.972L416.96 288.667L416.639 288.362L415.742 287.448ZM415.742 223.352L415.438 223.047L415.117 223.352L414.22 224.266L413.915 224.571L414.22 224.876L415.117 225.79L415.438 226.095L415.742 225.79L416.639 224.876L416.96 224.571L416.639 224.266L415.742 223.352ZM415.742 159.239L415.438 158.935L415.117 159.239L414.22 160.154L413.915 160.459L414.22 160.764L415.117 161.678L415.438 161.983L415.742 161.678L416.639 160.764L416.96 160.459L416.639 160.154L415.742 159.239ZM415.742 351.56L415.438 351.255L415.117 351.56L414.22 352.459L413.915 352.764L414.22 353.068L415.117 353.967L415.438 354.272L415.742 353.967L416.639 353.068L416.96 352.764L416.639 352.459L415.742 351.56ZM415.742 95.1271L415.438 94.8223L415.117 95.1271L414.22 96.0416L413.915 96.3465L414.22 96.6513L415.117 97.5658L415.438 97.8707L415.742 97.5658L416.639 96.6513L416.96 96.3465L416.639 96.0416L415.742 95.1271ZM415.742 31.0148L415.438 30.71L415.117 31.0148L414.22 31.9293L413.915 32.2342L414.22 32.539L415.117 33.4535L415.438 33.7583L415.742 33.4535L416.639 32.539L416.96 32.2342L416.639 31.9293L415.742 31.0148ZM607.845 287.448L607.54 287.143L607.236 287.448L606.322 288.362L606.018 288.667L606.322 288.972L607.236 289.887L607.54 290.192L607.845 289.887L608.758 288.972L609.062 288.667L608.758 288.362L607.845 287.448ZM543.81 95.1271L543.506 94.8223L543.201 95.1271L542.288 96.0416L541.984 96.3465L542.288 96.6513L543.201 97.5658L543.506 97.8707L543.81 97.5658L544.724 96.6513L545.028 96.3465L544.724 96.0416L543.81 95.1271ZM543.81 31.0148L543.506 30.71L543.201 31.0148L542.288 31.9293L541.984 32.2342L542.288 32.539L543.201 33.4535L543.506 33.7583L543.81 33.4535L544.724 32.539L545.028 32.2342L544.724 31.9293L543.81 31.0148ZM607.845 607.993L607.54 607.689L607.236 607.993L606.322 608.908L606.018 609.213L606.322 609.518L607.236 610.432L607.54 610.737L607.845 610.432L608.758 609.518L609.062 609.213L608.758 608.908L607.845 607.993ZM607.845 415.673L607.54 415.368L607.236 415.673L606.322 416.587L606.018 416.892L606.322 417.197L607.236 418.095L607.54 418.4L607.845 418.095L608.758 417.197L609.062 416.892L608.758 416.587L607.845 415.673ZM607.845 543.897L607.54 543.592L607.236 543.897L606.322 544.812L606.018 545.117L606.322 545.421L607.236 546.336L607.54 546.641L607.845 546.336L608.758 545.421L609.062 545.117L608.758 544.812L607.845 543.897ZM607.845 351.56L607.54 351.255L607.236 351.56L606.322 352.459L606.018 352.764L606.322 353.068L607.236 353.967L607.54 354.272L607.845 353.967L608.758 353.068L609.062 352.764L608.758 352.459L607.845 351.56ZM607.845 479.785L607.54 479.464L607.236 479.785L606.322 480.699L606.018 481.004L606.322 481.309L607.236 482.224L607.54 482.528L607.845 482.224L608.758 481.309L609.062 481.004L608.758 480.699L607.845 479.785ZM543.81 223.352L543.506 223.047L543.201 223.352L542.288 224.266L541.984 224.571L542.288 224.876L543.201 225.79L543.506 226.095L543.81 225.79L544.724 224.876L545.028 224.571L544.724 224.266L543.81 223.352ZM543.81 543.897L543.506 543.592L543.201 543.897L542.288 544.812L541.984 545.117L542.288 545.421L543.201 546.336L543.506 546.641L543.81 546.336L544.724 545.421L545.028 545.117L544.724 544.812L543.81 543.897ZM543.81 607.993L543.506 607.689L543.201 607.993L542.288 608.908L541.984 609.213L542.288 609.518L543.201 610.432L543.506 610.737L543.81 610.432L544.724 609.518L545.028 609.213L544.724 608.908L543.81 607.993ZM415.742 415.673L415.438 415.368L415.117 415.673L414.22 416.587L413.915 416.892L414.22 417.197L415.117 418.095L415.438 418.4L415.742 418.095L416.639 417.197L416.96 416.892L416.639 416.587L415.742 415.673ZM543.81 351.56L543.506 351.255L543.201 351.56L542.288 352.459L541.984 352.764L542.288 353.068L543.201 353.967L543.506 354.272L543.81 353.967L544.724 353.068L545.028 352.764L544.724 352.459L543.81 351.56ZM543.81 287.448L543.506 287.143L543.201 287.448L542.288 288.362L541.984 288.667L542.288 288.972L543.201 289.887L543.506 290.192L543.81 289.887L544.724 288.972L545.028 288.667L544.724 288.362L543.81 287.448ZM543.81 159.239L543.506 158.935L543.201 159.239L542.288 160.154L541.984 160.459L542.288 160.764L543.201 161.678L543.506 161.983L543.81 161.678L544.724 160.764L545.028 160.459L544.724 160.154L543.81 159.239ZM543.81 415.673L543.506 415.368L543.201 415.673L542.288 416.587L541.984 416.892L542.288 417.197L543.201 418.095L543.506 418.4L543.81 418.095L544.724 417.197L545.028 416.892L544.724 416.587L543.81 415.673ZM928.336 607.993L928.015 607.689L927.711 607.993L926.814 608.908L926.509 609.213L926.814 609.518L927.711 610.432L928.015 610.737L928.336 610.432L929.249 609.518L929.554 609.213L929.249 608.908L928.336 607.993ZM928.336 543.897L928.015 543.592L927.711 543.897L926.814 544.812L926.509 545.117L926.814 545.421L927.711 546.336L928.015 546.641L928.336 546.336L929.249 545.421L929.554 545.117L929.249 544.812L928.336 543.897ZM928.336 287.448L928.015 287.143L927.711 287.448L926.814 288.362L926.509 288.667L926.814 288.972L927.711 289.887L928.015 290.192L928.336 289.887L929.249 288.972L929.554 288.667L929.249 288.362L928.336 287.448ZM928.336 479.785L928.015 479.464L927.711 479.785L926.814 480.699L926.509 481.004L926.814 481.309L927.711 482.224L928.015 482.528L928.336 482.224L929.249 481.309L929.554 481.004L929.249 480.699L928.336 479.785ZM928.336 223.352L928.015 223.047L927.711 223.352L926.814 224.266L926.509 224.571L926.814 224.876L927.711 225.79L928.015 226.095L928.336 225.79L929.249 224.876L929.554 224.571L929.249 224.266L928.336 223.352ZM928.336 415.673L928.015 415.368L927.711 415.673L926.814 416.587L926.509 416.892L926.814 417.197L927.711 418.095L928.015 418.4L928.336 418.095L929.249 417.197L929.554 416.892L929.249 416.587L928.336 415.673ZM928.336 159.239L928.015 158.935L927.711 159.239L926.814 160.154L926.509 160.459L926.814 160.764L927.711 161.678L928.015 161.983L928.336 161.678L929.249 160.764L929.554 160.459L929.249 160.154L928.336 159.239ZM864.302 415.673L863.981 415.368L863.677 415.673L862.763 416.587L862.459 416.892L862.763 417.197L863.677 418.095L863.981 418.4L864.302 418.095L865.199 417.197L865.504 416.892L865.199 416.587L864.302 415.673ZM864.302 479.785L863.981 479.464L863.677 479.785L862.763 480.699L862.459 481.004L862.763 481.309L863.677 482.224L863.981 482.528L864.302 482.224L865.199 481.309L865.504 481.004L865.199 480.699L864.302 479.785ZM864.302 607.993L863.981 607.689L863.677 607.993L862.763 608.908L862.459 609.213L862.763 609.518L863.677 610.432L863.981 610.737L864.302 610.432L865.199 609.518L865.504 609.213L865.199 608.908L864.302 607.993ZM864.302 543.897L863.981 543.592L863.677 543.897L862.763 544.812L862.459 545.117L862.763 545.421L863.677 546.336L863.981 546.641L864.302 546.336L865.199 545.421L865.504 545.117L865.199 544.812L864.302 543.897ZM864.302 31.0148L863.981 30.71L863.677 31.0148L862.763 31.9293L862.459 32.2342L862.763 32.539L863.677 33.4535L863.981 33.7583L864.302 33.4535L865.199 32.539L865.504 32.2342L865.199 31.9293L864.302 31.0148ZM864.302 351.56L863.981 351.255L863.677 351.56L862.763 352.459L862.459 352.764L862.763 353.068L863.677 353.967L863.981 354.272L864.302 353.967L865.199 353.068L865.504 352.764L865.199 352.459L864.302 351.56ZM864.302 159.239L863.981 158.935L863.677 159.239L862.763 160.154L862.459 160.459L862.763 160.764L863.677 161.678L863.981 161.983L864.302 161.678L865.199 160.764L865.504 160.459L865.199 160.154L864.302 159.239ZM864.302 95.1271L863.981 94.8223L863.677 95.1271L862.763 96.0416L862.459 96.3465L862.763 96.6513L863.677 97.5658L863.981 97.8707L864.302 97.5658L865.199 96.6513L865.504 96.3465L865.199 96.0416L864.302 95.1271ZM864.302 287.448L863.981 287.143L863.677 287.448L862.763 288.362L862.459 288.667L862.763 288.972L863.677 289.887L863.981 290.192L864.302 289.887L865.199 288.972L865.504 288.667L865.199 288.362L864.302 287.448ZM864.302 223.352L863.981 223.047L863.677 223.352L862.763 224.266L862.459 224.571L862.763 224.876L863.677 225.79L863.981 226.095L864.302 225.79L865.199 224.876L865.504 224.571L865.199 224.266L864.302 223.352ZM928.336 351.56L928.015 351.255L927.711 351.56L926.814 352.459L926.509 352.764L926.814 353.068L927.711 353.967L928.015 354.272L928.336 353.967L929.249 353.068L929.554 352.764L929.249 352.459L928.336 351.56ZM992.37 95.1271L992.066 94.8223L991.745 95.1271L990.832 96.0416L990.511 96.3465L990.832 96.6513L991.745 97.5658L992.066 97.8707L992.37 97.5658L993.268 96.6513L993.572 96.3465L993.268 96.0416L992.37 95.1271ZM992.37 31.0148L992.066 30.71L991.745 31.0148L990.832 31.9293L990.511 32.2342L990.832 32.539L991.745 33.4535L992.066 33.7583L992.37 33.4535L993.268 32.539L993.572 32.2342L993.268 31.9293L992.37 31.0148ZM992.37 159.239L992.066 158.935L991.745 159.239L990.832 160.154L990.511 160.459L990.832 160.764L991.745 161.678L992.066 161.983L992.37 161.678L993.268 160.764L993.572 160.459L993.268 160.154L992.37 159.239ZM992.37 223.352L992.066 223.047L991.745 223.352L990.832 224.266L990.511 224.571L990.832 224.876L991.745 225.79L992.066 226.095L992.37 225.79L993.268 224.876L993.572 224.571L993.268 224.266L992.37 223.352ZM1056.39 543.897L1056.08 543.592L1055.76 543.897L1054.87 544.812L1054.56 545.117L1054.87 545.421L1055.76 546.336L1056.08 546.641L1056.39 546.336L1057.29 545.421L1057.61 545.117L1057.29 544.812L1056.39 543.897ZM992.37 287.448L992.066 287.143L991.745 287.448L990.832 288.362L990.511 288.667L990.832 288.972L991.745 289.887L992.066 290.192L992.37 289.887L993.268 288.972L993.572 288.667L993.268 288.362L992.37 287.448ZM1056.39 607.993L1056.08 607.689L1055.76 607.993L1054.87 608.908L1054.56 609.213L1054.87 609.518L1055.76 610.432L1056.08 610.737L1056.39 610.432L1057.29 609.518L1057.61 609.213L1057.29 608.908L1056.39 607.993ZM928.336 95.1271L928.015 94.8223L927.711 95.1271L926.814 96.0416L926.509 96.3465L926.814 96.6513L927.711 97.5658L928.015 97.8707L928.336 97.5658L929.249 96.6513L929.554 96.3465L929.249 96.0416L928.336 95.1271ZM992.37 351.56L992.066 351.255L991.745 351.56L990.832 352.459L990.511 352.764L990.832 353.068L991.745 353.967L992.066 354.272L992.37 353.967L993.268 353.068L993.572 352.764L993.268 352.459L992.37 351.56ZM928.336 31.0148L928.015 30.71L927.711 31.0148L926.814 31.9293L926.509 32.2342L926.814 32.539L927.711 33.4535L928.015 33.7583L928.336 33.4535L929.249 32.539L929.554 32.2342L929.249 31.9293L928.336 31.0148ZM992.37 479.785L992.066 479.464L991.745 479.785L990.832 480.699L990.511 481.004L990.832 481.309L991.745 482.224L992.066 482.528L992.37 482.224L993.268 481.309L993.572 481.004L993.268 480.699L992.37 479.785ZM992.37 607.993L992.066 607.689L991.745 607.993L990.832 608.908L990.511 609.213L990.832 609.518L991.745 610.432L992.066 610.737L992.37 610.432L993.268 609.518L993.572 609.213L993.268 608.908L992.37 607.993ZM992.37 415.673L992.066 415.368L991.745 415.673L990.832 416.587L990.511 416.892L990.832 417.197L991.745 418.095L992.066 418.4L992.37 418.095L993.268 417.197L993.572 416.892L993.268 416.587L992.37 415.673ZM992.37 543.897L992.066 543.592L991.745 543.897L990.832 544.812L990.511 545.117L990.832 545.421L991.745 546.336L992.066 546.641L992.37 546.336L993.268 545.421L993.572 545.117L993.268 544.812L992.37 543.897ZM672.215 31.0148L671.911 30.71L671.606 31.0148L670.693 31.9293L670.388 32.2342L670.693 32.539L671.606 33.4535L671.911 33.7583L672.215 33.4535L673.129 32.539L673.433 32.2342L673.129 31.9293L672.215 31.0148ZM736.233 415.673L735.929 415.368L735.624 415.673L734.711 416.587L734.407 416.892L734.711 417.197L735.624 418.095L735.929 418.4L736.233 418.095L737.147 417.197L737.451 416.892L737.147 416.587L736.233 415.673ZM672.215 287.448L671.911 287.143L671.606 287.448L670.693 288.362L670.388 288.667L670.693 288.972L671.606 289.887L671.911 290.192L672.215 289.887L673.129 288.972L673.433 288.667L673.129 288.362L672.215 287.448ZM672.215 159.239L671.911 158.935L671.606 159.239L670.693 160.154L670.388 160.459L670.693 160.764L671.606 161.678L671.911 161.983L672.215 161.678L673.129 160.764L673.433 160.459L673.129 160.154L672.215 159.239ZM736.233 543.897L735.929 543.592L735.624 543.897L734.711 544.812L734.407 545.117L734.711 545.421L735.624 546.336L735.929 546.641L736.233 546.336L737.147 545.421L737.451 545.117L737.147 544.812L736.233 543.897ZM736.233 479.785L735.929 479.464L735.624 479.785L734.711 480.699L734.407 481.004L734.711 481.309L735.624 482.224L735.929 482.528L736.233 482.224L737.147 481.309L737.451 481.004L737.147 480.699L736.233 479.785ZM736.233 607.993L735.929 607.689L735.624 607.993L734.711 608.908L734.407 609.213L734.711 609.518L735.624 610.432L735.929 610.737L736.233 610.432L737.147 609.518L737.451 609.213L737.147 608.908L736.233 607.993ZM672.215 223.352L671.911 223.047L671.606 223.352L670.693 224.266L670.388 224.571L670.693 224.876L671.606 225.79L671.911 226.095L672.215 225.79L673.129 224.876L673.433 224.571L673.129 224.266L672.215 223.352ZM672.215 351.56L671.911 351.255L671.606 351.56L670.693 352.459L670.388 352.764L670.693 353.068L671.606 353.967L671.911 354.272L672.215 353.967L673.129 353.068L673.433 352.764L673.129 352.459L672.215 351.56ZM1056.39 479.785L1056.08 479.464L1055.76 479.785L1054.87 480.699L1054.56 481.004L1054.87 481.309L1055.76 482.224L1056.08 482.528L1056.39 482.224L1057.29 481.309L1057.61 481.004L1057.29 480.699L1056.39 479.785ZM672.215 415.673L671.911 415.368L671.606 415.673L670.693 416.587L670.388 416.892L670.693 417.197L671.606 418.095L671.911 418.4L672.215 418.095L673.129 417.197L673.433 416.892L673.129 416.587L672.215 415.673ZM672.215 479.785L671.911 479.464L671.606 479.785L670.693 480.699L670.388 481.004L670.693 481.309L671.606 482.224L671.911 482.528L672.215 482.224L673.129 481.309L673.433 481.004L673.129 480.699L672.215 479.785ZM672.215 543.897L671.911 543.592L671.606 543.897L670.693 544.812L670.388 545.117L670.693 545.421L671.606 546.336L671.911 546.641L672.215 546.336L673.129 545.421L673.433 545.117L673.129 544.812L672.215 543.897ZM672.215 607.993L671.911 607.689L671.606 607.993L670.693 608.908L670.388 609.213L670.693 609.518L671.606 610.432L671.911 610.737L672.215 610.432L673.129 609.518L673.433 609.213L673.129 608.908L672.215 607.993ZM800.268 351.56L799.963 351.255L799.659 351.56L798.761 352.459L798.441 352.764L798.761 353.068L799.659 353.967L799.963 354.272L800.268 353.967L801.181 353.068L801.485 352.764L801.181 352.459L800.268 351.56ZM800.268 287.448L799.963 287.143L799.659 287.448L798.761 288.362L798.441 288.667L798.761 288.972L799.659 289.887L799.963 290.192L800.268 289.887L801.181 288.972L801.485 288.667L801.181 288.362L800.268 287.448ZM736.233 351.56L735.929 351.255L735.624 351.56L734.711 352.459L734.407 352.764L734.711 353.068L735.624 353.967L735.929 354.272L736.233 353.967L737.147 353.068L737.451 352.764L737.147 352.459L736.233 351.56ZM800.268 479.785L799.963 479.464L799.659 479.785L798.761 480.699L798.441 481.004L798.761 481.309L799.659 482.224L799.963 482.528L800.268 482.224L801.181 481.309L801.485 481.004L801.181 480.699L800.268 479.785ZM800.268 223.352L799.963 223.047L799.659 223.352L798.761 224.266L798.441 224.571L798.761 224.876L799.659 225.79L799.963 226.095L800.268 225.79L801.181 224.876L801.485 224.571L801.181 224.266L800.268 223.352ZM800.268 95.1271L799.963 94.8223L799.659 95.1271L798.761 96.0416L798.441 96.3465L798.761 96.6513L799.659 97.5658L799.963 97.8707L800.268 97.5658L801.181 96.6513L801.485 96.3465L801.181 96.0416L800.268 95.1271ZM800.268 31.0148L799.963 30.71L799.659 31.0148L798.761 31.9293L798.441 32.2342L798.761 32.539L799.659 33.4535L799.963 33.7583L800.268 33.4535L801.181 32.539L801.485 32.2342L801.181 31.9293L800.268 31.0148ZM800.268 543.897L799.963 543.592L799.659 543.897L798.761 544.812L798.441 545.117L798.761 545.421L799.659 546.336L799.963 546.641L800.268 546.336L801.181 545.421L801.485 545.117L801.181 544.812L800.268 543.897ZM800.268 159.239L799.963 158.935L799.659 159.239L798.761 160.154L798.441 160.459L798.761 160.764L799.659 161.678L799.963 161.983L800.268 161.678L801.181 160.764L801.485 160.459L801.181 160.154L800.268 159.239ZM800.268 415.673L799.963 415.368L799.659 415.673L798.761 416.587L798.441 416.892L798.761 417.197L799.659 418.095L799.963 418.4L800.268 418.095L801.181 417.197L801.485 416.892L801.181 416.587L800.268 415.673ZM736.233 95.1271L735.929 94.8223L735.624 95.1271L734.711 96.0416L734.407 96.3465L734.711 96.6513L735.624 97.5658L735.929 97.8707L736.233 97.5658L737.147 96.6513L737.451 96.3465L737.147 96.0416L736.233 95.1271ZM736.233 159.239L735.929 158.935L735.624 159.239L734.711 160.154L734.407 160.459L734.711 160.764L735.624 161.678L735.929 161.983L736.233 161.678L737.147 160.764L737.451 160.459L737.147 160.154L736.233 159.239ZM736.233 223.352L735.929 223.047L735.624 223.352L734.711 224.266L734.407 224.571L734.711 224.876L735.624 225.79L735.929 226.095L736.233 225.79L737.147 224.876L737.451 224.571L737.147 224.266L736.233 223.352ZM736.233 287.448L735.929 287.143L735.624 287.448L734.711 288.362L734.407 288.667L734.711 288.972L735.624 289.887L735.929 290.192L736.233 289.887L737.147 288.972L737.451 288.667L737.147 288.362L736.233 287.448ZM800.268 607.993L799.963 607.689L799.659 607.993L798.761 608.908L798.441 609.213L798.761 609.518L799.659 610.432L799.963 610.737L800.268 610.432L801.181 609.518L801.485 609.213L801.181 608.908L800.268 607.993ZM736.233 31.0148L735.929 30.71L735.624 31.0148L734.711 31.9293L734.407 32.2342L734.711 32.539L735.624 33.4535L735.929 33.7583L736.233 33.4535L737.147 32.539L737.451 32.2342L737.147 31.9293L736.233 31.0148ZM672.215 95.1271L671.911 94.8223L671.606 95.1271L670.693 96.0416L670.388 96.3465L670.693 96.6513L671.606 97.5658L671.911 97.8707L672.215 97.5658L673.129 96.6513L673.433 96.3465L673.129 96.0416L672.215 95.1271ZM1248.49 223.352L1248.19 223.047L1247.88 223.352L1246.97 224.266L1246.66 224.571L1246.97 224.876L1247.88 225.79L1248.19 226.095L1248.49 225.79L1249.4 224.876L1249.71 224.571L1249.4 224.266L1248.49 223.352ZM1248.49 31.0148L1248.19 30.71L1247.88 31.0148L1246.97 31.9293L1246.66 32.2342L1246.97 32.539L1247.88 33.4535L1248.19 33.7583L1248.49 33.4535L1249.4 32.539L1249.71 32.2342L1249.4 31.9293L1248.49 31.0148ZM1248.49 159.239L1248.19 158.935L1247.88 159.239L1246.97 160.154L1246.66 160.459L1246.97 160.764L1247.88 161.678L1248.19 161.983L1248.49 161.678L1249.4 160.764L1249.71 160.459L1249.4 160.154L1248.49 159.239ZM1248.49 95.1271L1248.19 94.8223L1247.88 95.1271L1246.97 96.0416L1246.66 96.3465L1246.97 96.6513L1247.88 97.5658L1248.19 97.8707L1248.49 97.5658L1249.4 96.6513L1249.71 96.3465L1249.4 96.0416L1248.49 95.1271ZM1184.46 479.785L1184.15 479.464L1183.85 479.785L1182.93 480.699L1182.63 481.004L1182.93 481.309L1183.85 482.224L1184.15 482.528L1184.46 482.224L1185.37 481.309L1185.67 481.004L1185.37 480.699L1184.46 479.785ZM1120.42 415.673L1120.12 415.368L1119.81 415.673L1118.9 416.587L1118.6 416.892L1118.9 417.197L1119.81 418.095L1120.12 418.4L1120.42 418.095L1121.34 417.197L1121.66 416.892L1121.34 416.587L1120.42 415.673ZM1120.42 607.993L1120.12 607.689L1119.81 607.993L1118.9 608.908L1118.6 609.213L1118.9 609.518L1119.81 610.432L1120.12 610.737L1120.42 610.432L1121.34 609.518L1121.66 609.213L1121.34 608.908L1120.42 607.993ZM1120.42 479.785L1120.12 479.464L1119.81 479.785L1118.9 480.699L1118.6 481.004L1118.9 481.309L1119.81 482.224L1120.12 482.528L1120.42 482.224L1121.34 481.309L1121.66 481.004L1121.34 480.699L1120.42 479.785ZM1120.42 543.897L1120.12 543.592L1119.81 543.897L1118.9 544.812L1118.6 545.117L1118.9 545.421L1119.81 546.336L1120.12 546.641L1120.42 546.336L1121.34 545.421L1121.66 545.117L1121.34 544.812L1120.42 543.897ZM1120.42 287.448L1120.12 287.143L1119.81 287.448L1118.9 288.362L1118.6 288.667L1118.9 288.972L1119.81 289.887L1120.12 290.192L1120.42 289.887L1121.34 288.972L1121.66 288.667L1121.34 288.362L1120.42 287.448ZM1120.42 351.56L1120.12 351.255L1119.81 351.56L1118.9 352.459L1118.6 352.764L1118.9 353.068L1119.81 353.967L1120.12 354.272L1120.42 353.967L1121.34 353.068L1121.66 352.764L1121.34 352.459L1120.42 351.56ZM1120.42 31.0148L1120.12 30.71L1119.81 31.0148L1118.9 31.9293L1118.6 32.2342L1118.9 32.539L1119.81 33.4535L1120.12 33.7583L1120.42 33.4535L1121.34 32.539L1121.66 32.2342L1121.34 31.9293L1120.42 31.0148ZM1120.42 95.1271L1120.12 94.8223L1119.81 95.1271L1118.9 96.0416L1118.6 96.3465L1118.9 96.6513L1119.81 97.5658L1120.12 97.8707L1120.42 97.5658L1121.34 96.6513L1121.66 96.3465L1121.34 96.0416L1120.42 95.1271ZM1120.42 159.239L1120.12 158.935L1119.81 159.239L1118.9 160.154L1118.6 160.459L1118.9 160.764L1119.81 161.678L1120.12 161.983L1120.42 161.678L1121.34 160.764L1121.66 160.459L1121.34 160.154L1120.42 159.239ZM1120.42 223.352L1120.12 223.047L1119.81 223.352L1118.9 224.266L1118.6 224.571L1118.9 224.876L1119.81 225.79L1120.12 226.095L1120.42 225.79L1121.34 224.876L1121.66 224.571L1121.34 224.266L1120.42 223.352ZM1056.39 287.448L1056.08 287.143L1055.76 287.448L1054.87 288.362L1054.56 288.667L1054.87 288.972L1055.76 289.887L1056.08 290.192L1056.39 289.887L1057.29 288.972L1057.61 288.667L1057.29 288.362L1056.39 287.448ZM1056.39 223.352L1056.08 223.047L1055.76 223.352L1054.87 224.266L1054.56 224.571L1054.87 224.876L1055.76 225.79L1056.08 226.095L1056.39 225.79L1057.29 224.876L1057.61 224.571L1057.29 224.266L1056.39 223.352ZM1056.39 159.239L1056.08 158.935L1055.76 159.239L1054.87 160.154L1054.56 160.459L1054.87 160.764L1055.76 161.678L1056.08 161.983L1056.39 161.678L1057.29 160.764L1057.61 160.459L1057.29 160.154L1056.39 159.239ZM1056.39 351.56L1056.08 351.255L1055.76 351.56L1054.87 352.459L1054.56 352.764L1054.87 353.068L1055.76 353.967L1056.08 354.272L1056.39 353.967L1057.29 353.068L1057.61 352.764L1057.29 352.459L1056.39 351.56ZM1056.39 95.1271L1056.08 94.8223L1055.76 95.1271L1054.87 96.0416L1054.56 96.3465L1054.87 96.6513L1055.76 97.5658L1056.08 97.8707L1056.39 97.5658L1057.29 96.6513L1057.61 96.3465L1057.29 96.0416L1056.39 95.1271ZM1056.39 31.0148L1056.08 30.71L1055.76 31.0148L1054.87 31.9293L1054.56 32.2342L1054.87 32.539L1055.76 33.4535L1056.08 33.7583L1056.39 33.4535L1057.29 32.539L1057.61 32.2342L1057.29 31.9293L1056.39 31.0148ZM1248.49 287.448L1248.19 287.143L1247.88 287.448L1246.97 288.362L1246.66 288.667L1246.97 288.972L1247.88 289.887L1248.19 290.192L1248.49 289.887L1249.4 288.972L1249.71 288.667L1249.4 288.362L1248.49 287.448ZM1184.46 95.1271L1184.15 94.8223L1183.85 95.1271L1182.93 96.0416L1182.63 96.3465L1182.93 96.6513L1183.85 97.5658L1184.15 97.8707L1184.46 97.5658L1185.37 96.6513L1185.67 96.3465L1185.37 96.0416L1184.46 95.1271ZM1184.46 31.0148L1184.15 30.71L1183.85 31.0148L1182.93 31.9293L1182.63 32.2342L1182.93 32.539L1183.85 33.4535L1184.15 33.7583L1184.46 33.4535L1185.37 32.539L1185.67 32.2342L1185.37 31.9293L1184.46 31.0148ZM1248.49 607.993L1248.19 607.689L1247.88 607.993L1246.97 608.908L1246.66 609.213L1246.97 609.518L1247.88 610.432L1248.19 610.737L1248.49 610.432L1249.4 609.518L1249.71 609.213L1249.4 608.908L1248.49 607.993ZM1248.49 415.673L1248.19 415.368L1247.88 415.673L1246.97 416.587L1246.66 416.892L1246.97 417.197L1247.88 418.095L1248.19 418.4L1248.49 418.095L1249.4 417.197L1249.71 416.892L1249.4 416.587L1248.49 415.673ZM1248.49 543.897L1248.19 543.592L1247.88 543.897L1246.97 544.812L1246.66 545.117L1246.97 545.421L1247.88 546.336L1248.19 546.641L1248.49 546.336L1249.4 545.421L1249.71 545.117L1249.4 544.812L1248.49 543.897ZM1248.49 351.56L1248.19 351.255L1247.88 351.56L1246.97 352.459L1246.66 352.764L1246.97 353.068L1247.88 353.967L1248.19 354.272L1248.49 353.967L1249.4 353.068L1249.71 352.764L1249.4 352.459L1248.49 351.56ZM1248.49 479.785L1248.19 479.464L1247.88 479.785L1246.97 480.699L1246.66 481.004L1246.97 481.309L1247.88 482.224L1248.19 482.528L1248.49 482.224L1249.4 481.309L1249.71 481.004L1249.4 480.699L1248.49 479.785ZM1184.46 223.352L1184.15 223.047L1183.85 223.352L1182.93 224.266L1182.63 224.571L1182.93 224.876L1183.85 225.79L1184.15 226.095L1184.46 225.79L1185.37 224.876L1185.67 224.571L1185.37 224.266L1184.46 223.352ZM1184.46 543.897L1184.15 543.592L1183.85 543.897L1182.93 544.812L1182.63 545.117L1182.93 545.421L1183.85 546.336L1184.15 546.641L1184.46 546.336L1185.37 545.421L1185.67 545.117L1185.37 544.812L1184.46 543.897ZM1184.46 607.993L1184.15 607.689L1183.85 607.993L1182.93 608.908L1182.63 609.213L1182.93 609.518L1183.85 610.432L1184.15 610.737L1184.46 610.432L1185.37 609.518L1185.67 609.213L1185.37 608.908L1184.46 607.993ZM1056.39 415.673L1056.08 415.368L1055.76 415.673L1054.87 416.587L1054.56 416.892L1054.87 417.197L1055.76 418.095L1056.08 418.4L1056.39 418.095L1057.29 417.197L1057.61 416.892L1057.29 416.587L1056.39 415.673ZM1184.46 351.56L1184.15 351.255L1183.85 351.56L1182.93 352.459L1182.63 352.764L1182.93 353.068L1183.85 353.967L1184.15 354.272L1184.46 353.967L1185.37 353.068L1185.67 352.764L1185.37 352.459L1184.46 351.56ZM1184.46 287.448L1184.15 287.143L1183.85 287.448L1182.93 288.362L1182.63 288.667L1182.93 288.972L1183.85 289.887L1184.15 290.192L1184.46 289.887L1185.37 288.972L1185.67 288.667L1185.37 288.362L1184.46 287.448ZM1184.46 159.239L1184.15 158.935L1183.85 159.239L1182.93 160.154L1182.63 160.459L1182.93 160.764L1183.85 161.678L1184.15 161.983L1184.46 161.678L1185.37 160.764L1185.67 160.459L1185.37 160.154L1184.46 159.239ZM1184.46 415.673L1184.15 415.368L1183.85 415.673L1182.93 416.587L1182.63 416.892L1182.93 417.197L1183.85 418.095L1184.15 418.4L1184.46 418.095L1185.37 417.197L1185.67 416.892L1185.37 416.587L1184.46 415.673ZM1568.69 607.993L1568.37 607.689L1568.07 607.993L1567.17 608.908L1566.87 609.213L1567.17 609.518L1568.07 610.432L1568.37 610.737L1568.69 610.432L1569.61 609.518L1569.91 609.213L1569.61 608.908L1568.69 607.993ZM1568.69 543.897L1568.37 543.592L1568.07 543.897L1567.17 544.812L1566.87 545.117L1567.17 545.421L1568.07 546.336L1568.37 546.641L1568.69 546.336L1569.61 545.421L1569.91 545.117L1569.61 544.812L1568.69 543.897ZM1568.69 287.448L1568.37 287.143L1568.07 287.448L1567.17 288.362L1566.87 288.667L1567.17 288.972L1568.07 289.887L1568.37 290.192L1568.69 289.887L1569.61 288.972L1569.91 288.667L1569.61 288.362L1568.69 287.448ZM1568.69 479.785L1568.37 479.464L1568.07 479.785L1567.17 480.699L1566.87 481.004L1567.17 481.309L1568.07 482.224L1568.37 482.528L1568.69 482.224L1569.61 481.309L1569.91 481.004L1569.61 480.699L1568.69 479.785ZM1568.69 223.352L1568.37 223.047L1568.07 223.352L1567.17 224.266L1566.87 224.571L1567.17 224.876L1568.07 225.79L1568.37 226.095L1568.69 225.79L1569.61 224.876L1569.91 224.571L1569.61 224.266L1568.69 223.352ZM1568.69 415.673L1568.37 415.368L1568.07 415.673L1567.17 416.587L1566.87 416.892L1567.17 417.197L1568.07 418.095L1568.37 418.4L1568.69 418.095L1569.61 417.197L1569.91 416.892L1569.61 416.587L1568.69 415.673ZM1568.69 159.239L1568.37 158.935L1568.07 159.239L1567.17 160.154L1566.87 160.459L1567.17 160.764L1568.07 161.678L1568.37 161.983L1568.69 161.678L1569.61 160.764L1569.91 160.459L1569.61 160.154L1568.69 159.239ZM1504.66 415.673L1504.34 415.368L1504.03 415.673L1503.12 416.587L1502.82 416.892L1503.12 417.197L1504.03 418.095L1504.34 418.4L1504.66 418.095L1505.56 417.197L1505.86 416.892L1505.56 416.587L1504.66 415.673ZM1504.66 479.785L1504.34 479.464L1504.03 479.785L1503.12 480.699L1502.82 481.004L1503.12 481.309L1504.03 482.224L1504.34 482.528L1504.66 482.224L1505.56 481.309L1505.86 481.004L1505.56 480.699L1504.66 479.785ZM1504.66 607.993L1504.34 607.689L1504.03 607.993L1503.12 608.908L1502.82 609.213L1503.12 609.518L1504.03 610.432L1504.34 610.737L1504.66 610.432L1505.56 609.518L1505.86 609.213L1505.56 608.908L1504.66 607.993ZM1504.66 543.897L1504.34 543.592L1504.03 543.897L1503.12 544.812L1502.82 545.117L1503.12 545.421L1504.03 546.336L1504.34 546.641L1504.66 546.336L1505.56 545.421L1505.86 545.117L1505.56 544.812L1504.66 543.897ZM1504.66 31.0148L1504.34 30.71L1504.03 31.0148L1503.12 31.9293L1502.82 32.2342L1503.12 32.539L1504.03 33.4535L1504.34 33.7583L1504.66 33.4535L1505.56 32.539L1505.86 32.2342L1505.56 31.9293L1504.66 31.0148ZM1504.66 351.56L1504.34 351.255L1504.03 351.56L1503.12 352.459L1502.82 352.764L1503.12 353.068L1504.03 353.967L1504.34 354.272L1504.66 353.967L1505.56 353.068L1505.86 352.764L1505.56 352.459L1504.66 351.56ZM1504.66 159.239L1504.34 158.935L1504.03 159.239L1503.12 160.154L1502.82 160.459L1503.12 160.764L1504.03 161.678L1504.34 161.983L1504.66 161.678L1505.56 160.764L1505.86 160.459L1505.56 160.154L1504.66 159.239ZM1504.66 95.1271L1504.34 94.8223L1504.03 95.1271L1503.12 96.0416L1502.82 96.3465L1503.12 96.6513L1504.03 97.5658L1504.34 97.8707L1504.66 97.5658L1505.56 96.6513L1505.86 96.3465L1505.56 96.0416L1504.66 95.1271ZM1504.66 287.448L1504.34 287.143L1504.03 287.448L1503.12 288.362L1502.82 288.667L1503.12 288.972L1504.03 289.887L1504.34 290.192L1504.66 289.887L1505.56 288.972L1505.86 288.667L1505.56 288.362L1504.66 287.448ZM1504.66 223.352L1504.34 223.047L1504.03 223.352L1503.12 224.266L1502.82 224.571L1503.12 224.876L1504.03 225.79L1504.34 226.095L1504.66 225.79L1505.56 224.876L1505.86 224.571L1505.56 224.266L1504.66 223.352ZM1568.69 351.56L1568.37 351.255L1568.07 351.56L1567.17 352.459L1566.87 352.764L1567.17 353.068L1568.07 353.967L1568.37 354.272L1568.69 353.967L1569.61 353.068L1569.91 352.764L1569.61 352.459L1568.69 351.56ZM1632.73 95.1271L1632.42 94.8223L1632.1 95.1271L1631.19 96.0416L1630.87 96.3465L1631.19 96.6513L1632.1 97.5658L1632.42 97.8707L1632.73 97.5658L1633.63 96.6513L1633.93 96.3465L1633.63 96.0416L1632.73 95.1271ZM1632.73 31.0148L1632.42 30.71L1632.1 31.0148L1631.19 31.9293L1630.87 32.2342L1631.19 32.539L1632.1 33.4535L1632.42 33.7583L1632.73 33.4535L1633.63 32.539L1633.93 32.2342L1633.63 31.9293L1632.73 31.0148ZM1632.73 159.239L1632.42 158.935L1632.1 159.239L1631.19 160.154L1630.87 160.459L1631.19 160.764L1632.1 161.678L1632.42 161.983L1632.73 161.678L1633.63 160.764L1633.93 160.459L1633.63 160.154L1632.73 159.239ZM1632.73 223.352L1632.42 223.047L1632.1 223.352L1631.19 224.266L1630.87 224.571L1631.19 224.876L1632.1 225.79L1632.42 226.095L1632.73 225.79L1633.63 224.876L1633.93 224.571L1633.63 224.266L1632.73 223.352ZM1696.75 543.897L1696.44 543.592L1696.12 543.897L1695.22 544.812L1694.92 545.117L1695.22 545.421L1696.12 546.336L1696.44 546.641L1696.75 546.336L1697.64 545.421L1697.96 545.117L1697.64 544.812L1696.75 543.897ZM1632.73 287.448L1632.42 287.143L1632.1 287.448L1631.19 288.362L1630.87 288.667L1631.19 288.972L1632.1 289.887L1632.42 290.192L1632.73 289.887L1633.63 288.972L1633.93 288.667L1633.63 288.362L1632.73 287.448ZM1696.75 607.993L1696.44 607.689L1696.12 607.993L1695.22 608.908L1694.92 609.213L1695.22 609.518L1696.12 610.432L1696.44 610.737L1696.75 610.432L1697.64 609.518L1697.96 609.213L1697.64 608.908L1696.75 607.993ZM1568.69 95.1271L1568.37 94.8223L1568.07 95.1271L1567.17 96.0416L1566.87 96.3465L1567.17 96.6513L1568.07 97.5658L1568.37 97.8707L1568.69 97.5658L1569.61 96.6513L1569.91 96.3465L1569.61 96.0416L1568.69 95.1271ZM1632.73 351.56L1632.42 351.255L1632.1 351.56L1631.19 352.459L1630.87 352.764L1631.19 353.068L1632.1 353.967L1632.42 354.272L1632.73 353.967L1633.63 353.068L1633.93 352.764L1633.63 352.459L1632.73 351.56ZM1568.69 31.0148L1568.37 30.71L1568.07 31.0148L1567.17 31.9293L1566.87 32.2342L1567.17 32.539L1568.07 33.4535L1568.37 33.7583L1568.69 33.4535L1569.61 32.539L1569.91 32.2342L1569.61 31.9293L1568.69 31.0148ZM1632.73 479.785L1632.42 479.464L1632.1 479.785L1631.19 480.699L1630.87 481.004L1631.19 481.309L1632.1 482.224L1632.42 482.528L1632.73 482.224L1633.63 481.309L1633.93 481.004L1633.63 480.699L1632.73 479.785ZM1632.73 607.993L1632.42 607.689L1632.1 607.993L1631.19 608.908L1630.87 609.213L1631.19 609.518L1632.1 610.432L1632.42 610.737L1632.73 610.432L1633.63 609.518L1633.93 609.213L1633.63 608.908L1632.73 607.993ZM1632.73 415.673L1632.42 415.368L1632.1 415.673L1631.19 416.587L1630.87 416.892L1631.19 417.197L1632.1 418.095L1632.42 418.4L1632.73 418.095L1633.63 417.197L1633.93 416.892L1633.63 416.587L1632.73 415.673ZM1632.73 543.897L1632.42 543.592L1632.1 543.897L1631.19 544.812L1630.87 545.117L1631.19 545.421L1632.1 546.336L1632.42 546.641L1632.73 546.336L1633.63 545.421L1633.93 545.117L1633.63 544.812L1632.73 543.897ZM1312.57 31.0148L1312.27 30.71L1311.96 31.0148L1311.05 31.9293L1310.75 32.2342L1311.05 32.539L1311.96 33.4535L1312.27 33.7583L1312.57 33.4535L1313.49 32.539L1313.79 32.2342L1313.49 31.9293L1312.57 31.0148ZM1376.59 415.673L1376.29 415.368L1375.98 415.673L1375.07 416.587L1374.76 416.892L1375.07 417.197L1375.98 418.095L1376.29 418.4L1376.59 418.095L1377.5 417.197L1377.81 416.892L1377.5 416.587L1376.59 415.673ZM1312.57 287.448L1312.27 287.143L1311.96 287.448L1311.05 288.362L1310.75 288.667L1311.05 288.972L1311.96 289.887L1312.27 290.192L1312.57 289.887L1313.49 288.972L1313.79 288.667L1313.49 288.362L1312.57 287.448ZM1312.57 159.239L1312.27 158.935L1311.96 159.239L1311.05 160.154L1310.75 160.459L1311.05 160.764L1311.96 161.678L1312.27 161.983L1312.57 161.678L1313.49 160.764L1313.79 160.459L1313.49 160.154L1312.57 159.239ZM1376.59 543.897L1376.29 543.592L1375.98 543.897L1375.07 544.812L1374.76 545.117L1375.07 545.421L1375.98 546.336L1376.29 546.641L1376.59 546.336L1377.5 545.421L1377.81 545.117L1377.5 544.812L1376.59 543.897ZM1376.59 479.785L1376.29 479.464L1375.98 479.785L1375.07 480.699L1374.76 481.004L1375.07 481.309L1375.98 482.224L1376.29 482.528L1376.59 482.224L1377.5 481.309L1377.81 481.004L1377.5 480.699L1376.59 479.785ZM1376.59 607.993L1376.29 607.689L1375.98 607.993L1375.07 608.908L1374.76 609.213L1375.07 609.518L1375.98 610.432L1376.29 610.737L1376.59 610.432L1377.5 609.518L1377.81 609.213L1377.5 608.908L1376.59 607.993ZM1312.57 223.352L1312.27 223.047L1311.96 223.352L1311.05 224.266L1310.75 224.571L1311.05 224.876L1311.96 225.79L1312.27 226.095L1312.57 225.79L1313.49 224.876L1313.79 224.571L1313.49 224.266L1312.57 223.352ZM1312.57 351.56L1312.27 351.255L1311.96 351.56L1311.05 352.459L1310.75 352.764L1311.05 353.068L1311.96 353.967L1312.27 354.272L1312.57 353.967L1313.49 353.068L1313.79 352.764L1313.49 352.459L1312.57 351.56ZM1696.75 479.785L1696.44 479.464L1696.12 479.785L1695.22 480.699L1694.92 481.004L1695.22 481.309L1696.12 482.224L1696.44 482.528L1696.75 482.224L1697.64 481.309L1697.96 481.004L1697.64 480.699L1696.75 479.785ZM1312.57 415.673L1312.27 415.368L1311.96 415.673L1311.05 416.587L1310.75 416.892L1311.05 417.197L1311.96 418.095L1312.27 418.4L1312.57 418.095L1313.49 417.197L1313.79 416.892L1313.49 416.587L1312.57 415.673ZM1312.57 479.785L1312.27 479.464L1311.96 479.785L1311.05 480.699L1310.75 481.004L1311.05 481.309L1311.96 482.224L1312.27 482.528L1312.57 482.224L1313.49 481.309L1313.79 481.004L1313.49 480.699L1312.57 479.785ZM1312.57 543.897L1312.27 543.592L1311.96 543.897L1311.05 544.812L1310.75 545.117L1311.05 545.421L1311.96 546.336L1312.27 546.641L1312.57 546.336L1313.49 545.421L1313.79 545.117L1313.49 544.812L1312.57 543.897ZM1312.57 607.993L1312.27 607.689L1311.96 607.993L1311.05 608.908L1310.75 609.213L1311.05 609.518L1311.96 610.432L1312.27 610.737L1312.57 610.432L1313.49 609.518L1313.79 609.213L1313.49 608.908L1312.57 607.993ZM1440.63 351.56L1440.32 351.255L1440.02 351.56L1439.12 352.459L1438.8 352.764L1439.12 353.068L1440.02 353.967L1440.32 354.272L1440.63 353.967L1441.54 353.068L1441.84 352.764L1441.54 352.459L1440.63 351.56ZM1440.63 287.448L1440.32 287.143L1440.02 287.448L1439.12 288.362L1438.8 288.667L1439.12 288.972L1440.02 289.887L1440.32 290.192L1440.63 289.887L1441.54 288.972L1441.84 288.667L1441.54 288.362L1440.63 287.448ZM1376.59 351.56L1376.29 351.255L1375.98 351.56L1375.07 352.459L1374.76 352.764L1375.07 353.068L1375.98 353.967L1376.29 354.272L1376.59 353.967L1377.5 353.068L1377.81 352.764L1377.5 352.459L1376.59 351.56ZM1440.63 479.785L1440.32 479.464L1440.02 479.785L1439.12 480.699L1438.8 481.004L1439.12 481.309L1440.02 482.224L1440.32 482.528L1440.63 482.224L1441.54 481.309L1441.84 481.004L1441.54 480.699L1440.63 479.785ZM1440.63 223.352L1440.32 223.047L1440.02 223.352L1439.12 224.266L1438.8 224.571L1439.12 224.876L1440.02 225.79L1440.32 226.095L1440.63 225.79L1441.54 224.876L1441.84 224.571L1441.54 224.266L1440.63 223.352ZM1440.63 95.1271L1440.32 94.8223L1440.02 95.1271L1439.12 96.0416L1438.8 96.3465L1439.12 96.6513L1440.02 97.5658L1440.32 97.8707L1440.63 97.5658L1441.54 96.6513L1441.84 96.3465L1441.54 96.0416L1440.63 95.1271ZM1440.63 31.0148L1440.32 30.71L1440.02 31.0148L1439.12 31.9293L1438.8 32.2342L1439.12 32.539L1440.02 33.4535L1440.32 33.7583L1440.63 33.4535L1441.54 32.539L1441.84 32.2342L1441.54 31.9293L1440.63 31.0148ZM1440.63 543.897L1440.32 543.592L1440.02 543.897L1439.12 544.812L1438.8 545.117L1439.12 545.421L1440.02 546.336L1440.32 546.641L1440.63 546.336L1441.54 545.421L1441.84 545.117L1441.54 544.812L1440.63 543.897ZM1440.63 159.239L1440.32 158.935L1440.02 159.239L1439.12 160.154L1438.8 160.459L1439.12 160.764L1440.02 161.678L1440.32 161.983L1440.63 161.678L1441.54 160.764L1441.84 160.459L1441.54 160.154L1440.63 159.239ZM1440.63 415.673L1440.32 415.368L1440.02 415.673L1439.12 416.587L1438.8 416.892L1439.12 417.197L1440.02 418.095L1440.32 418.4L1440.63 418.095L1441.54 417.197L1441.84 416.892L1441.54 416.587L1440.63 415.673ZM1376.59 95.1271L1376.29 94.8223L1375.98 95.1271L1375.07 96.0416L1374.76 96.3465L1375.07 96.6513L1375.98 97.5658L1376.29 97.8707L1376.59 97.5658L1377.5 96.6513L1377.81 96.3465L1377.5 96.0416L1376.59 95.1271ZM1376.59 159.239L1376.29 158.935L1375.98 159.239L1375.07 160.154L1374.76 160.459L1375.07 160.764L1375.98 161.678L1376.29 161.983L1376.59 161.678L1377.5 160.764L1377.81 160.459L1377.5 160.154L1376.59 159.239ZM1376.59 223.352L1376.29 223.047L1375.98 223.352L1375.07 224.266L1374.76 224.571L1375.07 224.876L1375.98 225.79L1376.29 226.095L1376.59 225.79L1377.5 224.876L1377.81 224.571L1377.5 224.266L1376.59 223.352ZM1376.59 287.448L1376.29 287.143L1375.98 287.448L1375.07 288.362L1374.76 288.667L1375.07 288.972L1375.98 289.887L1376.29 290.192L1376.59 289.887L1377.5 288.972L1377.81 288.667L1377.5 288.362L1376.59 287.448ZM1440.63 607.993L1440.32 607.689L1440.02 607.993L1439.12 608.908L1438.8 609.213L1439.12 609.518L1440.02 610.432L1440.32 610.737L1440.63 610.432L1441.54 609.518L1441.84 609.213L1441.54 608.908L1440.63 607.993ZM1376.59 31.0148L1376.29 30.71L1375.98 31.0148L1375.07 31.9293L1374.76 32.2342L1375.07 32.539L1375.98 33.4535L1376.29 33.7583L1376.59 33.4535L1377.5 32.539L1377.81 32.2342L1377.5 31.9293L1376.59 31.0148ZM1312.57 95.1271L1312.27 94.8223L1311.96 95.1271L1311.05 96.0416L1310.75 96.3465L1311.05 96.6513L1311.96 97.5658L1312.27 97.8707L1312.57 97.5658L1313.49 96.6513L1313.79 96.3465L1313.49 96.0416L1312.57 95.1271ZM1888.85 223.352L1888.54 223.047L1888.24 223.352L1887.33 224.266L1887.02 224.571L1887.33 224.876L1888.24 225.79L1888.54 226.095L1888.85 225.79L1889.76 224.876L1890.07 224.571L1889.76 224.266L1888.85 223.352ZM1888.85 31.0148L1888.54 30.71L1888.24 31.0148L1887.33 31.9293L1887.02 32.2342L1887.33 32.539L1888.24 33.4535L1888.54 33.7583L1888.85 33.4535L1889.76 32.539L1890.07 32.2342L1889.76 31.9293L1888.85 31.0148ZM1888.85 159.239L1888.54 158.935L1888.24 159.239L1887.33 160.154L1887.02 160.459L1887.33 160.764L1888.24 161.678L1888.54 161.983L1888.85 161.678L1889.76 160.764L1890.07 160.459L1889.76 160.154L1888.85 159.239ZM1888.85 95.1271L1888.54 94.8223L1888.24 95.1271L1887.33 96.0416L1887.02 96.3465L1887.33 96.6513L1888.24 97.5658L1888.54 97.8707L1888.85 97.5658L1889.76 96.6513L1890.07 96.3465L1889.76 96.0416L1888.85 95.1271ZM1824.81 479.785L1824.51 479.464L1824.21 479.785L1823.29 480.699L1822.99 481.004L1823.29 481.309L1824.21 482.224L1824.51 482.528L1824.81 482.224L1825.73 481.309L1826.03 481.004L1825.73 480.699L1824.81 479.785ZM1760.78 415.673L1760.48 415.368L1760.17 415.673L1759.26 416.587L1758.95 416.892L1759.26 417.197L1760.17 418.095L1760.48 418.4L1760.78 418.095L1761.69 417.197L1762.01 416.892L1761.69 416.587L1760.78 415.673ZM1760.78 607.993L1760.48 607.689L1760.17 607.993L1759.26 608.908L1758.95 609.213L1759.26 609.518L1760.17 610.432L1760.48 610.737L1760.78 610.432L1761.69 609.518L1762.01 609.213L1761.69 608.908L1760.78 607.993ZM1760.78 479.785L1760.48 479.464L1760.17 479.785L1759.26 480.699L1758.95 481.004L1759.26 481.309L1760.17 482.224L1760.48 482.528L1760.78 482.224L1761.69 481.309L1762.01 481.004L1761.69 480.699L1760.78 479.785ZM1760.78 543.897L1760.48 543.592L1760.17 543.897L1759.26 544.812L1758.95 545.117L1759.26 545.421L1760.17 546.336L1760.48 546.641L1760.78 546.336L1761.69 545.421L1762.01 545.117L1761.69 544.812L1760.78 543.897ZM1760.78 287.448L1760.48 287.143L1760.17 287.448L1759.26 288.362L1758.95 288.667L1759.26 288.972L1760.17 289.887L1760.48 290.192L1760.78 289.887L1761.69 288.972L1762.01 288.667L1761.69 288.362L1760.78 287.448ZM1760.78 351.56L1760.48 351.255L1760.17 351.56L1759.26 352.459L1758.95 352.764L1759.26 353.068L1760.17 353.967L1760.48 354.272L1760.78 353.967L1761.69 353.068L1762.01 352.764L1761.69 352.459L1760.78 351.56ZM1760.78 31.0148L1760.48 30.71L1760.17 31.0148L1759.26 31.9293L1758.95 32.2342L1759.26 32.539L1760.17 33.4535L1760.48 33.7583L1760.78 33.4535L1761.69 32.539L1762.01 32.2342L1761.69 31.9293L1760.78 31.0148ZM1760.78 95.1271L1760.48 94.8223L1760.17 95.1271L1759.26 96.0416L1758.95 96.3465L1759.26 96.6513L1760.17 97.5658L1760.48 97.8707L1760.78 97.5658L1761.69 96.6513L1762.01 96.3465L1761.69 96.0416L1760.78 95.1271ZM1760.78 159.239L1760.48 158.935L1760.17 159.239L1759.26 160.154L1758.95 160.459L1759.26 160.764L1760.17 161.678L1760.48 161.983L1760.78 161.678L1761.69 160.764L1762.01 160.459L1761.69 160.154L1760.78 159.239ZM1760.78 223.352L1760.48 223.047L1760.17 223.352L1759.26 224.266L1758.95 224.571L1759.26 224.876L1760.17 225.79L1760.48 226.095L1760.78 225.79L1761.69 224.876L1762.01 224.571L1761.69 224.266L1760.78 223.352ZM1696.75 287.448L1696.44 287.143L1696.12 287.448L1695.22 288.362L1694.92 288.667L1695.22 288.972L1696.12 289.887L1696.44 290.192L1696.75 289.887L1697.64 288.972L1697.96 288.667L1697.64 288.362L1696.75 287.448ZM1696.75 223.352L1696.44 223.047L1696.12 223.352L1695.22 224.266L1694.92 224.571L1695.22 224.876L1696.12 225.79L1696.44 226.095L1696.75 225.79L1697.64 224.876L1697.96 224.571L1697.64 224.266L1696.75 223.352ZM1696.75 159.239L1696.44 158.935L1696.12 159.239L1695.22 160.154L1694.92 160.459L1695.22 160.764L1696.12 161.678L1696.44 161.983L1696.75 161.678L1697.64 160.764L1697.96 160.459L1697.64 160.154L1696.75 159.239ZM1696.75 351.56L1696.44 351.255L1696.12 351.56L1695.22 352.459L1694.92 352.764L1695.22 353.068L1696.12 353.967L1696.44 354.272L1696.75 353.967L1697.64 353.068L1697.96 352.764L1697.64 352.459L1696.75 351.56ZM1696.75 95.1271L1696.44 94.8223L1696.12 95.1271L1695.22 96.0416L1694.92 96.3465L1695.22 96.6513L1696.12 97.5658L1696.44 97.8707L1696.75 97.5658L1697.64 96.6513L1697.96 96.3465L1697.64 96.0416L1696.75 95.1271ZM1696.75 31.0148L1696.44 30.71L1696.12 31.0148L1695.22 31.9293L1694.92 32.2342L1695.22 32.539L1696.12 33.4535L1696.44 33.7583L1696.75 33.4535L1697.64 32.539L1697.96 32.2342L1697.64 31.9293L1696.75 31.0148ZM1888.85 287.448L1888.54 287.143L1888.24 287.448L1887.33 288.362L1887.02 288.667L1887.33 288.972L1888.24 289.887L1888.54 290.192L1888.85 289.887L1889.76 288.972L1890.07 288.667L1889.76 288.362L1888.85 287.448ZM1824.81 95.1271L1824.51 94.8223L1824.21 95.1271L1823.29 96.0416L1822.99 96.3465L1823.29 96.6513L1824.21 97.5658L1824.51 97.8707L1824.81 97.5658L1825.73 96.6513L1826.03 96.3465L1825.73 96.0416L1824.81 95.1271ZM1824.81 31.0148L1824.51 30.71L1824.21 31.0148L1823.29 31.9293L1822.99 32.2342L1823.29 32.539L1824.21 33.4535L1824.51 33.7583L1824.81 33.4535L1825.73 32.539L1826.03 32.2342L1825.73 31.9293L1824.81 31.0148ZM1888.85 607.993L1888.54 607.689L1888.24 607.993L1887.33 608.908L1887.02 609.213L1887.33 609.518L1888.24 610.432L1888.54 610.737L1888.85 610.432L1889.76 609.518L1890.07 609.213L1889.76 608.908L1888.85 607.993ZM1888.85 415.673L1888.54 415.368L1888.24 415.673L1887.33 416.587L1887.02 416.892L1887.33 417.197L1888.24 418.095L1888.54 418.4L1888.85 418.095L1889.76 417.197L1890.07 416.892L1889.76 416.587L1888.85 415.673ZM1888.85 543.897L1888.54 543.592L1888.24 543.897L1887.33 544.812L1887.02 545.117L1887.33 545.421L1888.24 546.336L1888.54 546.641L1888.85 546.336L1889.76 545.421L1890.07 545.117L1889.76 544.812L1888.85 543.897ZM1888.85 351.56L1888.54 351.255L1888.24 351.56L1887.33 352.459L1887.02 352.764L1887.33 353.068L1888.24 353.967L1888.54 354.272L1888.85 353.967L1889.76 353.068L1890.07 352.764L1889.76 352.459L1888.85 351.56ZM1888.85 479.785L1888.54 479.464L1888.24 479.785L1887.33 480.699L1887.02 481.004L1887.33 481.309L1888.24 482.224L1888.54 482.528L1888.85 482.224L1889.76 481.309L1890.07 481.004L1889.76 480.699L1888.85 479.785ZM1824.81 223.352L1824.51 223.047L1824.21 223.352L1823.29 224.266L1822.99 224.571L1823.29 224.876L1824.21 225.79L1824.51 226.095L1824.81 225.79L1825.73 224.876L1826.03 224.571L1825.73 224.266L1824.81 223.352ZM1824.81 543.897L1824.51 543.592L1824.21 543.897L1823.29 544.812L1822.99 545.117L1823.29 545.421L1824.21 546.336L1824.51 546.641L1824.81 546.336L1825.73 545.421L1826.03 545.117L1825.73 544.812L1824.81 543.897ZM1824.81 607.993L1824.51 607.689L1824.21 607.993L1823.29 608.908L1822.99 609.213L1823.29 609.518L1824.21 610.432L1824.51 610.737L1824.81 610.432L1825.73 609.518L1826.03 609.213L1825.73 608.908L1824.81 607.993ZM1696.75 415.673L1696.44 415.368L1696.12 415.673L1695.22 416.587L1694.92 416.892L1695.22 417.197L1696.12 418.095L1696.44 418.4L1696.75 418.095L1697.64 417.197L1697.96 416.892L1697.64 416.587L1696.75 415.673ZM1824.81 351.56L1824.51 351.255L1824.21 351.56L1823.29 352.459L1822.99 352.764L1823.29 353.068L1824.21 353.967L1824.51 354.272L1824.81 353.967L1825.73 353.068L1826.03 352.764L1825.73 352.459L1824.81 351.56ZM1824.81 287.448L1824.51 287.143L1824.21 287.448L1823.29 288.362L1822.99 288.667L1823.29 288.972L1824.21 289.887L1824.51 290.192L1824.81 289.887L1825.73 288.972L1826.03 288.667L1825.73 288.362L1824.81 287.448ZM1824.81 159.239L1824.51 158.935L1824.21 159.239L1823.29 160.154L1822.99 160.459L1823.29 160.764L1824.21 161.678L1824.51 161.983L1824.81 161.678L1825.73 160.764L1826.03 160.459L1825.73 160.154L1824.81 159.239ZM1824.81 415.673L1824.51 415.368L1824.21 415.673L1823.29 416.587L1822.99 416.892L1823.29 417.197L1824.21 418.095L1824.51 418.4L1824.81 418.095L1825.73 417.197L1826.03 416.892L1825.73 416.587L1824.81 415.673Z" fill="url(#paint1_radial_41_5637)"/>
    <path d="M62.9448 61.707L65.2363 64.0013L62.9448 66.2956L60.6533 64.0013L62.9448 61.707ZM124.72 63.9852L127.011 66.2795L129.303 63.9852L127.011 61.6909L124.72 63.9852ZM188.786 63.9852L191.077 66.2795L193.369 63.9852L191.077 61.6909L188.786 63.9852ZM252.852 63.9852L255.144 66.2795L257.435 63.9852L255.144 61.6909L252.852 63.9852ZM316.918 63.9852L319.21 66.2795L321.501 63.9852L319.21 61.6909L316.918 63.9852ZM380.984 63.9852L383.276 66.2795L385.568 63.9852L383.276 61.6909L380.984 63.9852ZM445.067 63.9852L447.358 66.2795L449.65 63.9852L447.358 61.6909L445.067 63.9852ZM509.133 63.9852L511.424 66.2795L513.716 63.9852L511.424 61.6909L509.133 63.9852ZM573.199 63.9852L575.491 66.2795L577.782 63.9852L575.491 61.6909L573.199 63.9852ZM60.6533 128.13L62.9448 130.424L65.2363 128.13L62.9448 125.835L60.6533 128.13ZM124.72 128.13L127.011 130.424L129.303 128.13L127.011 125.835L124.72 128.13ZM188.786 128.13L191.077 130.424L193.369 128.13L191.077 125.835L188.786 128.13ZM252.852 128.13L255.144 130.424L257.435 128.13L255.144 125.835L252.852 128.13ZM316.918 128.13L319.21 130.424L321.501 128.13L319.21 125.835L316.918 128.13ZM380.984 128.13L383.276 130.424L385.568 128.13L383.276 125.835L380.984 128.13ZM445.067 128.13L447.358 130.424L449.65 128.13L447.358 125.835L445.067 128.13ZM509.133 128.13L511.424 130.424L513.716 128.13L511.424 125.835L509.133 128.13ZM573.199 128.13L575.491 130.424L577.782 128.13L575.491 125.835L573.199 128.13ZM60.6533 192.29L62.9448 194.584L65.2363 192.29L62.9448 189.996L60.6533 192.29ZM124.72 192.29L127.011 194.584L129.303 192.29L127.011 189.996L124.72 192.29ZM188.786 192.29L191.077 194.584L193.369 192.29L191.077 189.996L188.786 192.29ZM252.852 192.29L255.144 194.584L257.435 192.29L255.144 189.996L252.852 192.29ZM316.918 192.29L319.21 194.584L321.501 192.29L319.21 189.996L316.918 192.29ZM380.984 192.29L383.276 194.584L385.568 192.29L383.276 189.996L380.984 192.29ZM445.067 192.29L447.358 194.584L449.65 192.29L447.358 189.996L445.067 192.29ZM509.133 192.29L511.424 194.584L513.716 192.29L511.424 189.996L509.133 192.29ZM573.199 192.29L575.491 194.584L577.782 192.29L575.491 189.996L573.199 192.29ZM60.6533 256.434L62.9448 258.729L65.2363 256.434L62.9448 254.14L60.6533 256.434ZM124.72 256.434L127.011 258.729L129.303 256.434L127.011 254.14L124.72 256.434ZM188.786 256.434L191.077 258.729L193.369 256.434L191.077 254.14L188.786 256.434ZM252.852 256.434L255.144 258.729L257.435 256.434L255.144 254.14L252.852 256.434ZM316.918 256.434L319.21 258.729L321.501 256.434L319.21 254.14L316.918 256.434ZM380.984 256.434L383.276 258.729L385.568 256.434L383.276 254.14L380.984 256.434ZM445.067 256.434L447.358 258.729L449.65 256.434L447.358 254.14L445.067 256.434ZM509.133 256.434L511.424 258.729L513.716 256.434L511.424 254.14L509.133 256.434ZM573.199 256.434L575.491 258.729L577.782 256.434L575.491 254.14L573.199 256.434ZM60.6533 320.579L62.9448 322.873L65.2363 320.579L62.9448 318.285L60.6533 320.579ZM124.72 320.579L127.011 322.873L129.303 320.579L127.011 318.285L124.72 320.579ZM188.786 320.579L191.077 322.873L193.369 320.579L191.077 318.285L188.786 320.579ZM252.852 320.579L255.144 322.873L257.435 320.579L255.144 318.285L252.852 320.579ZM316.918 320.579L319.21 322.873L321.501 320.579L319.21 318.285L316.918 320.579ZM380.984 320.579L383.276 322.873L385.568 320.579L383.276 318.285L380.984 320.579ZM445.067 320.579L447.358 322.873L449.65 320.579L447.358 318.285L445.067 320.579ZM509.133 320.579L511.424 322.873L513.716 320.579L511.424 318.285L509.133 320.579ZM573.199 320.579L575.491 322.873L577.782 320.579L575.491 318.285L573.199 320.579ZM60.6533 384.723L62.9448 387.018L65.2363 384.723L62.9448 382.429L60.6533 384.723ZM124.72 384.723L127.011 387.018L129.303 384.723L127.011 382.429L124.72 384.723ZM188.786 384.723L191.077 387.018L193.369 384.723L191.077 382.429L188.786 384.723ZM252.852 384.723L255.144 387.018L257.435 384.723L255.144 382.429L252.852 384.723ZM316.918 384.723L319.21 387.018L321.501 384.723L319.21 382.429L316.918 384.723ZM380.984 384.723L383.276 387.018L385.568 384.723L383.276 382.429L380.984 384.723ZM445.067 384.723L447.358 387.018L449.65 384.723L447.358 382.429L445.067 384.723ZM509.133 384.723L511.424 387.018L513.716 384.723L511.424 382.429L509.133 384.723ZM573.199 384.723L575.491 387.018L577.782 384.723L575.491 382.429L573.199 384.723ZM60.6533 448.868L62.9448 451.162L65.2363 448.868L62.9448 446.573L60.6533 448.868ZM124.72 448.868L127.011 451.162L129.303 448.868L127.011 446.573L124.72 448.868ZM188.786 448.868L191.077 451.162L193.369 448.868L191.077 446.573L188.786 448.868ZM252.852 448.868L255.144 451.162L257.435 448.868L255.144 446.573L252.852 448.868ZM316.918 448.868L319.21 451.162L321.501 448.868L319.21 446.573L316.918 448.868ZM380.984 448.868L383.276 451.162L385.568 448.868L383.276 446.573L380.984 448.868ZM445.067 448.868L447.358 451.162L449.65 448.868L447.358 446.573L445.067 448.868ZM509.133 448.868L511.424 451.162L513.716 448.868L511.424 446.573L509.133 448.868ZM573.199 448.868L575.491 451.162L577.782 448.868L575.491 446.573L573.199 448.868ZM60.6533 513.012L62.9448 515.306L65.2363 513.012L62.9448 510.718L60.6533 513.012ZM124.72 513.012L127.011 515.306L129.303 513.012L127.011 510.718L124.72 513.012ZM188.786 513.012L191.077 515.306L193.369 513.012L191.077 510.718L188.786 513.012ZM252.852 513.012L255.144 515.306L257.435 513.012L255.144 510.718L252.852 513.012ZM316.918 513.012L319.21 515.306L321.501 513.012L319.21 510.718L316.918 513.012ZM380.984 513.012L383.276 515.306L385.568 513.012L383.276 510.718L380.984 513.012ZM445.067 513.012L447.358 515.306L449.65 513.012L447.358 510.718L445.067 513.012ZM509.133 513.012L511.424 515.306L513.716 513.012L511.424 510.718L509.133 513.012ZM573.199 513.012L575.491 515.306L577.782 513.012L575.491 510.718L573.199 513.012ZM60.6533 577.156L62.9448 579.451L65.2363 577.156L62.9448 574.862L60.6533 577.156ZM124.72 577.156L127.011 579.451L129.303 577.156L127.011 574.862L124.72 577.156ZM188.786 577.156L191.077 579.451L193.369 577.156L191.077 574.862L188.786 577.156ZM252.852 577.156L255.144 579.451L257.435 577.156L255.144 574.862L252.852 577.156ZM316.918 577.156L319.21 579.451L321.501 577.156L319.21 574.862L316.918 577.156ZM380.984 577.156L383.276 579.451L385.568 577.156L383.276 574.862L380.984 577.156ZM445.067 577.156L447.358 579.451L449.65 577.156L447.358 574.862L445.067 577.156ZM509.133 577.156L511.424 579.451L513.716 577.156L511.424 574.862L509.133 577.156ZM573.199 577.156L575.491 579.451L577.782 577.156L575.491 574.862L573.199 577.156ZM639.541 515.306V510.718L637.249 513.012L639.541 515.306ZM639.541 451.162V446.573L637.249 448.868L639.541 451.162ZM639.541 387.002V382.413L637.249 384.707L639.541 387.002ZM639.541 579.451V574.862L637.249 577.156L639.541 579.451ZM639.541 66.2795V61.6909L637.249 63.9852L639.541 66.2795ZM639.541 194.568V189.98L637.249 192.274L639.541 194.568ZM639.541 322.857V318.268L637.249 320.563L639.541 322.857ZM639.541 130.424V125.835L637.249 128.13L639.541 130.424ZM639.541 258.713V254.14L637.249 256.434L639.541 258.729V258.713ZM701.332 63.9852L703.623 66.2795L705.915 63.9852L703.623 61.6909L701.332 63.9852ZM765.398 63.9852L767.689 66.2795L769.981 63.9852L767.689 61.6909L765.398 63.9852ZM829.464 63.9852L831.756 66.2795L834.047 63.9852L831.756 61.6909L829.464 63.9852ZM893.53 63.9852L895.822 66.2795L898.113 63.9852L895.822 61.6909L893.53 63.9852ZM957.597 63.9852L959.888 66.2795L962.18 63.9852L959.888 61.6909L957.597 63.9852ZM1021.66 63.9852L1023.95 66.2795L1026.25 63.9852L1023.95 61.6909L1021.66 63.9852ZM1085.73 63.9852L1088.02 66.2795L1090.31 63.9852L1088.02 61.6909L1085.73 63.9852ZM1149.8 63.9852L1152.09 66.2795L1154.38 63.9852L1152.09 61.6909L1149.8 63.9852ZM1213.86 63.9852L1216.15 66.2795L1218.44 63.9852L1216.15 61.6909L1213.86 63.9852ZM701.332 128.13L703.623 130.424L705.915 128.13L703.623 125.835L701.332 128.13ZM765.398 128.13L767.689 130.424L769.981 128.13L767.689 125.835L765.398 128.13ZM829.464 128.13L831.756 130.424L834.047 128.13L831.756 125.835L829.464 128.13ZM893.53 128.13L895.822 130.424L898.113 128.13L895.822 125.835L893.53 128.13ZM957.597 128.13L959.888 130.424L962.18 128.13L959.888 125.835L957.597 128.13ZM1021.66 128.13L1023.95 130.424L1026.25 128.13L1023.95 125.835L1021.66 128.13ZM1085.73 128.13L1088.02 130.424L1090.31 128.13L1088.02 125.835L1085.73 128.13ZM1149.8 128.13L1152.09 130.424L1154.38 128.13L1152.09 125.835L1149.8 128.13ZM1213.86 128.13L1216.15 130.424L1218.44 128.13L1216.15 125.835L1213.86 128.13ZM701.332 192.29L703.623 194.584L705.915 192.29L703.623 189.996L701.332 192.29ZM765.398 192.29L767.689 194.584L769.981 192.29L767.689 189.996L765.398 192.29ZM829.464 192.29L831.756 194.584L834.047 192.29L831.756 189.996L829.464 192.29ZM893.53 192.29L895.822 194.584L898.113 192.29L895.822 189.996L893.53 192.29ZM957.597 192.29L959.888 194.584L962.18 192.29L959.888 189.996L957.597 192.29ZM1021.66 192.29L1023.95 194.584L1026.25 192.29L1023.95 189.996L1021.66 192.29ZM1085.73 192.29L1088.02 194.584L1090.31 192.29L1088.02 189.996L1085.73 192.29ZM1149.8 192.29L1152.09 194.584L1154.38 192.29L1152.09 189.996L1149.8 192.29ZM1213.86 192.29L1216.15 194.584L1218.44 192.29L1216.15 189.996L1213.86 192.29ZM701.332 256.434L703.623 258.729L705.915 256.434L703.623 254.14L701.332 256.434ZM765.398 256.434L767.689 258.729L769.981 256.434L767.689 254.14L765.398 256.434ZM829.464 256.434L831.756 258.729L834.047 256.434L831.756 254.14L829.464 256.434ZM893.53 256.434L895.822 258.729L898.113 256.434L895.822 254.14L893.53 256.434ZM957.597 256.434L959.888 258.729L962.18 256.434L959.888 254.14L957.597 256.434ZM1021.66 256.434L1023.95 258.729L1026.25 256.434L1023.95 254.14L1021.66 256.434ZM1085.73 256.434L1088.02 258.729L1090.31 256.434L1088.02 254.14L1085.73 256.434ZM1149.8 256.434L1152.09 258.729L1154.38 256.434L1152.09 254.14L1149.8 256.434ZM1213.86 256.434L1216.15 258.729L1218.44 256.434L1216.15 254.14L1213.86 256.434ZM701.332 320.579L703.623 322.873L705.915 320.579L703.623 318.285L701.332 320.579ZM765.398 320.579L767.689 322.873L769.981 320.579L767.689 318.285L765.398 320.579ZM829.464 320.579L831.756 322.873L834.047 320.579L831.756 318.285L829.464 320.579ZM893.53 320.579L895.822 322.873L898.113 320.579L895.822 318.285L893.53 320.579ZM957.597 320.579L959.888 322.873L962.18 320.579L959.888 318.285L957.597 320.579ZM1021.66 320.579L1023.95 322.873L1026.25 320.579L1023.95 318.285L1021.66 320.579ZM1085.73 320.579L1088.02 322.873L1090.31 320.579L1088.02 318.285L1085.73 320.579ZM1149.8 320.579L1152.09 322.873L1154.38 320.579L1152.09 318.285L1149.8 320.579ZM1213.86 320.579L1216.15 322.873L1218.44 320.579L1216.15 318.285L1213.86 320.579ZM701.332 384.723L703.623 387.018L705.915 384.723L703.623 382.429L701.332 384.723ZM765.398 384.723L767.689 387.018L769.981 384.723L767.689 382.429L765.398 384.723ZM829.464 384.723L831.756 387.018L834.047 384.723L831.756 382.429L829.464 384.723ZM893.53 384.723L895.822 387.018L898.113 384.723L895.822 382.429L893.53 384.723ZM957.597 384.723L959.888 387.018L962.18 384.723L959.888 382.429L957.597 384.723ZM1021.66 384.723L1023.95 387.018L1026.25 384.723L1023.95 382.429L1021.66 384.723ZM1085.73 384.723L1088.02 387.018L1090.31 384.723L1088.02 382.429L1085.73 384.723ZM1149.8 384.723L1152.09 387.018L1154.38 384.723L1152.09 382.429L1149.8 384.723ZM1213.86 384.723L1216.15 387.018L1218.44 384.723L1216.15 382.429L1213.86 384.723ZM701.332 448.868L703.623 451.162L705.915 448.868L703.623 446.573L701.332 448.868ZM765.398 448.868L767.689 451.162L769.981 448.868L767.689 446.573L765.398 448.868ZM829.464 448.868L831.756 451.162L834.047 448.868L831.756 446.573L829.464 448.868ZM893.53 448.868L895.822 451.162L898.113 448.868L895.822 446.573L893.53 448.868ZM957.597 448.868L959.888 451.162L962.18 448.868L959.888 446.573L957.597 448.868ZM1021.66 448.868L1023.95 451.162L1026.25 448.868L1023.95 446.573L1021.66 448.868ZM1085.73 448.868L1088.02 451.162L1090.31 448.868L1088.02 446.573L1085.73 448.868ZM1149.8 448.868L1152.09 451.162L1154.38 448.868L1152.09 446.573L1149.8 448.868ZM1213.86 448.868L1216.15 451.162L1218.44 448.868L1216.15 446.573L1213.86 448.868ZM701.332 513.012L703.623 515.306L705.915 513.012L703.623 510.718L701.332 513.012ZM765.398 513.012L767.689 515.306L769.981 513.012L767.689 510.718L765.398 513.012ZM829.464 513.012L831.756 515.306L834.047 513.012L831.756 510.718L829.464 513.012ZM893.53 513.012L895.822 515.306L898.113 513.012L895.822 510.718L893.53 513.012ZM957.597 513.012L959.888 515.306L962.18 513.012L959.888 510.718L957.597 513.012ZM1021.66 513.012L1023.95 515.306L1026.25 513.012L1023.95 510.718L1021.66 513.012ZM1085.73 513.012L1088.02 515.306L1090.31 513.012L1088.02 510.718L1085.73 513.012ZM1149.8 513.012L1152.09 515.306L1154.38 513.012L1152.09 510.718L1149.8 513.012ZM1213.86 513.012L1216.15 515.306L1218.44 513.012L1216.15 510.718L1213.86 513.012ZM701.332 577.156L703.623 579.451L705.915 577.156L703.623 574.862L701.332 577.156ZM765.398 577.156L767.689 579.451L769.981 577.156L767.689 574.862L765.398 577.156ZM829.464 577.156L831.756 579.451L834.047 577.156L831.756 574.862L829.464 577.156ZM893.53 577.156L895.822 579.451L898.113 577.156L895.822 574.862L893.53 577.156ZM957.597 577.156L959.888 579.451L962.18 577.156L959.888 574.862L957.597 577.156ZM1021.66 577.156L1023.95 579.451L1026.25 577.156L1023.95 574.862L1021.66 577.156ZM1085.73 577.156L1088.02 579.451L1090.31 577.156L1088.02 574.862L1085.73 577.156ZM1149.8 577.156L1152.09 579.451L1154.38 577.156L1152.09 574.862L1149.8 577.156ZM1213.86 577.156L1216.15 579.451L1218.44 577.156L1216.15 574.862L1213.86 577.156ZM639.557 515.306L641.848 513.012L639.557 510.718V515.306ZM639.557 451.162L641.848 448.868L639.557 446.573V451.162ZM639.557 387.002L641.848 384.707L639.557 382.413V387.002ZM639.557 579.451L641.848 577.156L639.557 574.862V579.451ZM639.557 66.2795L641.848 63.9852L639.557 61.6909V66.2795ZM639.557 194.568L641.848 192.274L639.557 189.98V194.568ZM639.557 322.857L641.848 320.563L639.557 318.268V322.857ZM639.557 130.424L641.848 128.13L639.557 125.835V130.424ZM639.557 258.713L641.848 256.418L639.557 254.124V258.697V258.713ZM1280.22 510.718L1277.93 513.012L1280.22 515.306V510.718ZM1280.22 446.573L1277.93 448.868L1280.22 451.162V446.573ZM1280.22 382.429L1277.93 384.723L1280.22 387.018V382.429ZM1280.22 574.862L1277.93 577.156L1280.22 579.451V574.862ZM1280.22 61.707L1277.93 64.0013L1280.22 66.2956V61.707ZM1280.22 189.996L1277.93 192.29L1280.22 194.584V189.996ZM1280.22 318.285L1277.93 320.579L1280.22 322.873V318.285ZM1280.22 125.851L1277.93 128.146L1280.22 130.44V125.851ZM1280.22 254.14L1277.93 256.434L1280.22 258.729V254.156V254.14ZM1342.01 63.9852L1344.3 66.2795L1346.59 63.9852L1344.3 61.6909L1342.01 63.9852ZM1406.08 63.9852L1408.37 66.2795L1410.66 63.9852L1408.37 61.6909L1406.08 63.9852ZM1470.14 63.9852L1472.43 66.2795L1474.73 63.9852L1472.43 61.6909L1470.14 63.9852ZM1534.21 63.9852L1536.5 66.2795L1538.79 63.9852L1536.5 61.6909L1534.21 63.9852ZM1598.27 63.9852L1600.57 66.2795L1602.86 63.9852L1600.57 61.6909L1598.27 63.9852ZM1662.34 63.9852L1664.63 66.2795L1666.92 63.9852L1664.63 61.6909L1662.34 63.9852ZM1726.41 63.9852L1728.7 66.2795L1730.99 63.9852L1728.7 61.6909L1726.41 63.9852ZM1790.47 63.9852L1792.77 66.2795L1795.06 63.9852L1792.77 61.6909L1790.47 63.9852ZM1854.54 63.9852L1856.83 66.2795L1859.12 63.9852L1856.83 61.6909L1854.54 63.9852ZM1342.01 128.13L1344.3 130.424L1346.59 128.13L1344.3 125.835L1342.01 128.13ZM1406.08 128.13L1408.37 130.424L1410.66 128.13L1408.37 125.835L1406.08 128.13ZM1470.14 128.13L1472.43 130.424L1474.73 128.13L1472.43 125.835L1470.14 128.13ZM1534.21 128.13L1536.5 130.424L1538.79 128.13L1536.5 125.835L1534.21 128.13ZM1598.27 128.13L1600.57 130.424L1602.86 128.13L1600.57 125.835L1598.27 128.13ZM1662.34 128.13L1664.63 130.424L1666.92 128.13L1664.63 125.835L1662.34 128.13ZM1726.41 128.13L1728.7 130.424L1730.99 128.13L1728.7 125.835L1726.41 128.13ZM1790.47 128.13L1792.77 130.424L1795.06 128.13L1792.77 125.835L1790.47 128.13ZM1854.54 128.13L1856.83 130.424L1859.12 128.13L1856.83 125.835L1854.54 128.13ZM1342.01 192.29L1344.3 194.584L1346.59 192.29L1344.3 189.996L1342.01 192.29ZM1406.08 192.29L1408.37 194.584L1410.66 192.29L1408.37 189.996L1406.08 192.29ZM1470.14 192.29L1472.43 194.584L1474.73 192.29L1472.43 189.996L1470.14 192.29ZM1534.21 192.29L1536.5 194.584L1538.79 192.29L1536.5 189.996L1534.21 192.29ZM1598.27 192.29L1600.57 194.584L1602.86 192.29L1600.57 189.996L1598.27 192.29ZM1662.34 192.29L1664.63 194.584L1666.92 192.29L1664.63 189.996L1662.34 192.29ZM1726.41 192.29L1728.7 194.584L1730.99 192.29L1728.7 189.996L1726.41 192.29ZM1790.47 192.29L1792.77 194.584L1795.06 192.29L1792.77 189.996L1790.47 192.29ZM1854.54 192.29L1856.83 194.584L1859.12 192.29L1856.83 189.996L1854.54 192.29ZM1342.01 256.434L1344.3 258.729L1346.59 256.434L1344.3 254.14L1342.01 256.434ZM1406.08 256.434L1408.37 258.729L1410.66 256.434L1408.37 254.14L1406.08 256.434ZM1470.14 256.434L1472.43 258.729L1474.73 256.434L1472.43 254.14L1470.14 256.434ZM1534.21 256.434L1536.5 258.729L1538.79 256.434L1536.5 254.14L1534.21 256.434ZM1598.27 256.434L1600.57 258.729L1602.86 256.434L1600.57 254.14L1598.27 256.434ZM1662.34 256.434L1664.63 258.729L1666.92 256.434L1664.63 254.14L1662.34 256.434ZM1726.41 256.434L1728.7 258.729L1730.99 256.434L1728.7 254.14L1726.41 256.434ZM1790.47 256.434L1792.77 258.729L1795.06 256.434L1792.77 254.14L1790.47 256.434ZM1854.54 256.434L1856.83 258.729L1859.12 256.434L1856.83 254.14L1854.54 256.434ZM1342.01 320.579L1344.3 322.873L1346.59 320.579L1344.3 318.285L1342.01 320.579ZM1406.08 320.579L1408.37 322.873L1410.66 320.579L1408.37 318.285L1406.08 320.579ZM1470.14 320.579L1472.43 322.873L1474.73 320.579L1472.43 318.285L1470.14 320.579ZM1534.21 320.579L1536.5 322.873L1538.79 320.579L1536.5 318.285L1534.21 320.579ZM1598.27 320.579L1600.57 322.873L1602.86 320.579L1600.57 318.285L1598.27 320.579ZM1662.34 320.579L1664.63 322.873L1666.92 320.579L1664.63 318.285L1662.34 320.579ZM1726.41 320.579L1728.7 322.873L1730.99 320.579L1728.7 318.285L1726.41 320.579ZM1790.47 320.579L1792.77 322.873L1795.06 320.579L1792.77 318.285L1790.47 320.579ZM1854.54 320.579L1856.83 322.873L1859.12 320.579L1856.83 318.285L1854.54 320.579ZM1342.01 384.723L1344.3 387.018L1346.59 384.723L1344.3 382.429L1342.01 384.723ZM1406.08 384.723L1408.37 387.018L1410.66 384.723L1408.37 382.429L1406.08 384.723ZM1470.14 384.723L1472.43 387.018L1474.73 384.723L1472.43 382.429L1470.14 384.723ZM1534.21 384.723L1536.5 387.018L1538.79 384.723L1536.5 382.429L1534.21 384.723ZM1598.27 384.723L1600.57 387.018L1602.86 384.723L1600.57 382.429L1598.27 384.723ZM1662.34 384.723L1664.63 387.018L1666.92 384.723L1664.63 382.429L1662.34 384.723ZM1726.41 384.723L1728.7 387.018L1730.99 384.723L1728.7 382.429L1726.41 384.723ZM1790.47 384.723L1792.77 387.018L1795.06 384.723L1792.77 382.429L1790.47 384.723ZM1854.54 384.723L1856.83 387.018L1859.12 384.723L1856.83 382.429L1854.54 384.723ZM1342.01 448.868L1344.3 451.162L1346.59 448.868L1344.3 446.573L1342.01 448.868ZM1406.08 448.868L1408.37 451.162L1410.66 448.868L1408.37 446.573L1406.08 448.868ZM1470.14 448.868L1472.43 451.162L1474.73 448.868L1472.43 446.573L1470.14 448.868ZM1534.21 448.868L1536.5 451.162L1538.79 448.868L1536.5 446.573L1534.21 448.868ZM1598.27 448.868L1600.57 451.162L1602.86 448.868L1600.57 446.573L1598.27 448.868ZM1662.34 448.868L1664.63 451.162L1666.92 448.868L1664.63 446.573L1662.34 448.868ZM1726.41 448.868L1728.7 451.162L1730.99 448.868L1728.7 446.573L1726.41 448.868ZM1790.47 448.868L1792.77 451.162L1795.06 448.868L1792.77 446.573L1790.47 448.868ZM1854.54 448.868L1856.83 451.162L1859.12 448.868L1856.83 446.573L1854.54 448.868ZM1342.01 513.012L1344.3 515.306L1346.59 513.012L1344.3 510.718L1342.01 513.012ZM1406.08 513.012L1408.37 515.306L1410.66 513.012L1408.37 510.718L1406.08 513.012ZM1470.14 513.012L1472.43 515.306L1474.73 513.012L1472.43 510.718L1470.14 513.012ZM1534.21 513.012L1536.5 515.306L1538.79 513.012L1536.5 510.718L1534.21 513.012ZM1598.27 513.012L1600.57 515.306L1602.86 513.012L1600.57 510.718L1598.27 513.012ZM1662.34 513.012L1664.63 515.306L1666.92 513.012L1664.63 510.718L1662.34 513.012ZM1726.41 513.012L1728.7 515.306L1730.99 513.012L1728.7 510.718L1726.41 513.012ZM1790.47 513.012L1792.77 515.306L1795.06 513.012L1792.77 510.718L1790.47 513.012ZM1854.54 513.012L1856.83 515.306L1859.12 513.012L1856.83 510.718L1854.54 513.012ZM1342.01 577.156L1344.3 579.451L1346.59 577.156L1344.3 574.862L1342.01 577.156ZM1406.08 577.156L1408.37 579.451L1410.66 577.156L1408.37 574.862L1406.08 577.156ZM1470.14 577.156L1472.43 579.451L1474.73 577.156L1472.43 574.862L1470.14 577.156ZM1534.21 577.156L1536.5 579.451L1538.79 577.156L1536.5 574.862L1534.21 577.156ZM1598.27 577.156L1600.57 579.451L1602.86 577.156L1600.57 574.862L1598.27 577.156ZM1662.34 577.156L1664.63 579.451L1666.92 577.156L1664.63 574.862L1662.34 577.156ZM1726.41 577.156L1728.7 579.451L1730.99 577.156L1728.7 574.862L1726.41 577.156ZM1790.47 577.156L1792.77 579.451L1795.06 577.156L1792.77 574.862L1790.47 577.156ZM1854.54 577.156L1856.83 579.451L1859.12 577.156L1856.83 574.862L1854.54 577.156ZM1280.22 515.306L1282.51 513.012L1280.22 510.718V515.306ZM1280.22 451.162L1282.51 448.868L1280.22 446.573V451.162ZM1280.22 387.002L1282.51 384.707L1280.22 382.413V387.002ZM1280.22 579.451L1282.51 577.156L1280.22 574.862V579.451ZM1280.22 66.2795L1282.51 63.9852L1280.22 61.6909V66.2795ZM1280.22 194.568L1282.51 192.274L1280.22 189.98V194.568ZM1280.22 322.857L1282.51 320.563L1280.22 318.268V322.857ZM1280.22 130.424L1282.51 128.13L1280.22 125.835V130.424ZM1280.22 258.713L1282.51 256.418L1280.22 254.124V258.697V258.713Z" fill="url(#paint2_radial_41_5637)"/>
    </g>
    <defs>
    <radialGradient id="paint0_radial_41_5637" cx="0" cy="0" r="1" gradientUnits="userSpaceOnUse" gradientTransform="translate(959.992 133.539) rotate(90) scale(506.462 1519.33)">
    <stop stop-color="#404042" stop-opacity="0.4"/>
    <stop offset="1" stop-color="#404042" stop-opacity="0"/>
    </radialGradient>
    <radialGradient id="paint1_radial_41_5637" cx="0" cy="0" r="1" gradientUnits="userSpaceOnUse" gradientTransform="translate(959.904 23.3855) rotate(90) scale(587.352 1883.82)">
    <stop stop-color="#f89b54" stop-opacity="0.5"/>
    <stop offset="1" stop-color="#f89b54" stop-opacity="0"/>
    </radialGradient>
    <radialGradient id="paint2_radial_41_5637" cx="0" cy="0" r="1" gradientUnits="userSpaceOnUse" gradientTransform="translate(959.888 -6.15285) rotate(90) scale(585.604 2034.13)">
    <stop stop-color="#f89b54" stop-opacity="0.8"/>
    <stop offset="1" stop-color="#f89b54" stop-opacity="0"/>
    </radialGradient>
    <clipPath id="clip0_41_5637">
    <rect width="1920" height="640" fill="white"/>
    </clipPath>
    </defs>
    </svg>